<svg width="24" height="24" viewBox="0 0 24 24" fill="none" xmlns="http://www.w3.org/2000/svg">
<path d="M12.0011 24.0022C18.6291 24.0022 24.0022 18.6291 24.0022 12.0011C24.0022 5.37307 18.6291 0 12.0011 0C5.37307 0 0 5.37307 0 12.0011C0 18.6291 5.37307 24.0022 12.0011 24.0022Z" fill="#E37B2C"/>
<path fill-rule="evenodd" clip-rule="evenodd" d="M9.37954 11.4794H10.4229V7.30585H11.4663V9.39261H12.5097V7.30585H13.5553V11.4794H14.5986V10.436H15.642V9.39261H16.6854V8.34923H17.7288V7.30585H18.7722V8.34923H19.8156V10.436V9.39261H20.8589V10.436H21.9023V11.4794H22.9457V15.6529H21.9023V16.6985H20.8589V17.7419H19.8156V15.6551H18.7722V14.6117H16.6854V16.6985H15.642V17.7419H14.5986V18.7852H13.5553V20.872H12.5119V21.9154H11.4903V20.872H10.4251V18.7852H9.38172V17.7419H8.33834V16.6985H7.29495V14.6117H5.20819V15.6551H4.1648V17.7419H3.12142V16.6985H2.07585V15.6551H1.03247V11.4794H2.07585V10.436H3.11924V9.39261H4.16262V10.436V8.34923H5.206V7.30585H6.24939V8.34923H7.29277V9.39261H8.33615V10.436H9.37954V11.4794Z" fill="#CD681B"/>
<path fill-rule="evenodd" clip-rule="evenodd" d="M9.37954 9.39265H10.4229V5.21912H11.4663V7.30588H12.5097V5.21912H13.5553V9.39265H14.5986V8.34927H15.642V7.30588H16.6854V6.2625H17.7288V5.21912H18.7722V6.2625H19.8156V8.34927V7.30588H20.8589V8.34927H21.9023V9.39265H22.9457V13.5662H21.9023V14.6096H20.8589V15.6529H19.8156V13.5662H18.7722V12.5228H16.6854V14.6096H15.642V15.6529H14.5986V16.6985H13.5553V18.7853H12.5119V19.8287H11.4903V18.7853H10.4251V16.6985H9.38172V15.6551H8.33834V14.6117H7.29495V12.525H5.20819V13.5684H4.1648V15.6551H3.12142V14.6117H2.07585V13.5684H1.03247V9.39265H2.07585V8.34927H3.11924V7.30588H4.16262V8.34927V6.2625H5.206V5.21912H6.24939V6.2625H7.29277V7.30588H8.33615V8.34927H9.37954V9.39265Z" fill="#271187"/>
<path fill-rule="evenodd" clip-rule="evenodd" d="M11.4664 8.34924H10.423V9.39263H11.4664V8.34924ZM13.5553 8.34924H12.5119V9.39263H13.5553V8.34924Z" fill="#4625D5"/>
<path fill-rule="evenodd" clip-rule="evenodd" d="M10.4229 9.39265H9.37954V10.436H10.4229V9.39265ZM1.03247 9.39265H2.07585V10.436H1.03247V9.39265ZM9.37954 8.34927H8.33615V9.39265H9.37954V8.34927ZM2.07585 8.34927H3.11924V9.39265H2.07585V8.34927ZM8.33615 7.30588H7.29277V8.34927H8.33615V7.30588ZM3.11924 7.30588H4.16262V8.34927H3.11924V7.30588ZM7.29277 6.2625H6.24939V7.30588H7.29277V6.2625ZM4.16262 6.2625H5.206V7.30588H4.16262V6.2625ZM6.24939 5.21912H5.206V6.2625H6.24939V5.21912Z" fill="#4625D5"/>
<path fill-rule="evenodd" clip-rule="evenodd" d="M22.9457 9.39265H21.9024V10.436H22.9457V9.39265ZM13.5553 9.39265H14.5987V10.436H13.5553V9.39265ZM21.9024 8.34927H20.859V9.39265H21.9024V8.34927ZM14.5987 8.34927H15.6421V9.39265H14.5987V8.34927ZM20.859 7.30588H19.8156V8.34927H20.859V7.30588ZM15.6421 7.30588H16.6854V8.34927H15.6421V7.30588ZM19.8156 6.2625H18.7722V7.30588H19.8156V6.2625ZM16.6854 6.2625H17.7288V7.30588H16.6854V6.2625ZM18.7722 5.21912H17.7288V6.2625H18.7722V5.21912Z" fill="#4625D5"/>
<path fill-rule="evenodd" clip-rule="evenodd" d="M10.423 7.30588H11.4664V8.34927H12.5097V7.30588H11.4664V5.21912H10.423V7.30588ZM13.5553 5.21912H12.5119V7.30588H13.5553V5.21912Z" fill="#4625D5"/>
<path fill-rule="evenodd" clip-rule="evenodd" d="M19.8156 9.39267H20.8589V12.5228H19.8156V13.5662H18.7722V11.4794H17.7288V12.5228H18.2505H16.6854V14.6096H15.642V15.653H14.5986V16.6985H13.5553V18.7853H12.5119V19.8287H11.4685V18.7853H10.4251V16.6985H9.38172V15.6552H8.33834V14.6118H7.29495V12.525H5.72988H6.25157V11.4816H5.20819V13.5684H4.1648V12.525H3.12142V9.39267H4.1648V8.34929V11.4794H5.20819V7.30591H6.25157V8.34929H7.29495V9.39267H8.33834V11.4794H9.38172V13.5662H10.4251V15.653H11.4685V17.7397H12.5119V15.653H13.5553V13.5662H14.5986V11.4794H15.642V9.39267H16.6854V8.34929H17.7288V7.30591H18.7722V11.4794H19.8156V9.39267ZM4.16262 14.6118H3.11924V15.6552H4.16262V14.6118ZM19.8156 14.6118H20.8589V15.6552H19.8156V14.6118ZM1.03247 13.5662H2.07585V14.6096H3.11924V13.5662H2.07585V11.4794H1.03247V13.5662ZM22.9457 13.5662H21.9023V14.6096H20.8589V13.5662H21.9023V11.4794H22.9457V13.5662ZM11.4663 12.5228V11.4794H10.4229V12.5228H11.4663V13.5662H12.5097V12.5228H11.4663ZM13.5531 11.4794H12.5097V12.5228H13.5531V11.4794Z" fill="#100055"/>
</svg>
