<svg width="24" height="24" viewBox="0 0 24 24" fill="none" xmlns="http://www.w3.org/2000/svg">
<path d="M12.0011 24.0022C18.6291 24.0022 24.0022 18.6291 24.0022 12.0011C24.0022 5.37307 18.6291 0 12.0011 0C5.37307 0 0 5.37307 0 12.0011C0 18.6291 5.37307 24.0022 12.0011 24.0022Z" fill="#8442CA"/>
<path fill-rule="evenodd" clip-rule="evenodd" d="M15.642 8.34925H17.7288V9.39263H18.7722V10.436H19.8156V11.4794H20.859V16.6963H19.8156V17.7397H18.7722V18.7831H17.7288V19.8265H15.642V20.8698H8.33618V19.8265H6.24941V18.7831H5.20603V17.7397H4.16265V16.6985H3.11926V11.4816H4.16265V10.4382H5.20603V9.39481H6.24941V8.35143H8.33618V7.30804H15.6399L15.642 8.34925Z" fill="#6830A4"/>
<path fill-rule="evenodd" clip-rule="evenodd" d="M15.642 6.26245H17.7288V7.30584H18.7722V8.34922H19.8156V9.3926H20.859V14.6095H19.8156V15.6529H18.7722V16.6985H17.7288V17.7419H15.642V18.7852H8.33618V17.7419H6.24941V16.6985H5.20603V15.6551H4.16265V14.6117H3.11926V9.39479H4.16265V8.3514H5.20603V7.30802H6.24941V6.26464H8.33618V5.22125H15.6399L15.642 6.26245Z" fill="#E37B2C"/>
<path fill-rule="evenodd" clip-rule="evenodd" d="M19.8156 14.6117V15.6551H18.7722V16.6985H17.7288V17.7419H15.642V18.7852H8.33618V17.7419H6.24941V16.6985H5.20603V15.6551H4.16265V14.6117H3.11926V10.436H4.16265V12.5228H5.20603V8.34922H6.24941V12.5228H5.20603V13.5661H6.24941V14.6095H7.2928V15.6529H8.33618V16.6985H15.6399V15.6551H16.6832V14.6117H17.7266V13.5683H18.7722V12.5249H19.8156V10.4382H20.859V14.6117H19.8156ZM18.7722 12.5228H17.7288V8.34922H18.7722V12.5228ZM12.5097 9.3926H11.4663V10.436H12.5097V9.3926ZM7.2928 8.34922V7.30583H6.24941V8.34922H7.2928V9.3926H8.33618V8.34922H7.2928ZM17.7288 8.34922H16.6854V9.3926H15.642V8.34922H16.6854V7.30583H17.7288V8.34922ZM9.37956 7.30583H8.33618V8.34922H9.37956V7.30583ZM14.5987 7.30583H15.642V8.34922H14.5987V7.30583ZM10.4229 6.26245H9.37956V7.30583H10.4229V6.26245ZM13.5553 6.26245H14.5987V7.30583H13.5553V6.26245Z" fill="#CE6414"/>
<path fill-rule="evenodd" clip-rule="evenodd" d="M15.642 17.7419H8.33618V18.7852H15.6399V17.7419H15.642ZM17.7288 15.6551V17.7419H15.642V16.6985H16.6854V15.6551H17.7288ZM5.20603 16.6985H6.24941V17.7419H8.33618V16.6985H7.2928V15.6551H5.20603H6.24941V12.5228H5.20603V14.6095H4.16265V12.5228H3.11926V14.6095H4.16265V15.6529H5.20603V16.6985ZM19.8156 14.6117V15.6551H18.7722V16.6985H17.7288V15.6551H18.7722V14.6117H19.8156V12.5249H20.859V14.6117H19.8156ZM17.7288 12.5228H18.7722V15.6529H17.7288V12.5228Z" fill="#A14602"/>
<path fill-rule="evenodd" clip-rule="evenodd" d="M11.4663 3.1214V4.18879H9.37952V5.22126H14.5964V4.18879H12.5097V3.13449H13.5552V2.08893H12.5118V3.13231L11.4663 3.1214Z" fill="#618F2A"/>
<path fill-rule="evenodd" clip-rule="evenodd" d="M11.4664 4.17571H10.423V5.21909H11.4664V4.17571ZM11.4664 4.17571H12.5097V5.21909H13.5553V4.17571H12.5119V3.13232H11.4685V4.17571H11.4664Z" fill="#456919"/>
<path fill-rule="evenodd" clip-rule="evenodd" d="M7.29282 13.5661H9.37959V12.5228H14.5965V13.5661H16.6833V12.5228H17.7267V14.6095H15.6399V15.6529H14.5965V16.6985H9.37959V15.6551H8.3362V14.6117H6.24944V12.5249H7.29282V13.5661ZM6.24944 11.4794H5.20605V12.5228H6.24944V11.4794ZM17.7288 11.4794H18.7722V12.5228H17.7288V11.4794ZM12.5097 10.436H11.4664V11.4794H12.5097V10.436ZM9.37959 10.4382H10.423V7.30585H9.37959V8.34923H8.3362V9.39261H7.29282V10.436H8.3362V11.4772H9.37959V10.4382ZM14.5987 10.4382H13.5553V7.30585H14.5987V8.34923H15.6421V9.39261H16.6855V10.436H15.6421V11.4772H14.5987V10.4382Z" fill="#3E2057"/>
<path fill-rule="evenodd" clip-rule="evenodd" d="M8.33616 14.6117H9.37954V13.5683H14.5965V14.6117H15.6398V15.6551H14.5965V16.6985H9.37954V15.6551H8.33616V14.6117ZM17.7288 13.5662H16.6854V14.6095H17.7288V13.5662ZM7.29277 14.6117H6.24939V13.5683H7.29277V14.6117ZM10.4229 10.436V8.34924H9.37954V9.39263H8.33616V11.4794H9.37954V10.436H10.4229ZM14.5986 11.4794V10.436H13.5553V8.34924H14.5986V9.39263H15.642V11.4794H14.5986Z" fill="#241C2A"/>
<path fill-rule="evenodd" clip-rule="evenodd" d="M5.20598 8.3492H4.1626V10.436H5.20598V8.3492ZM18.7721 8.3492H19.8155V10.436H18.7721V8.3492ZM6.24936 7.30582H5.20598V8.3492H6.24936V7.30582ZM17.7288 7.30582H18.7721V8.3492H17.7288V7.30582ZM8.33613 6.26244H7.29275V7.30582H8.33613V6.26244ZM15.642 6.26244H16.6854V7.30582H15.642V6.26244H8.33613V5.21906H15.6398V6.26244H15.642Z" fill="#FF994C"/>
</svg>
