<svg width="73" height="48" viewBox="0 0 73 48" fill="none" xmlns="http://www.w3.org/2000/svg">
<path d="M36.5483 37.8317C51.2953 37.8317 63.25 36.3832 63.25 34.5964C63.25 32.8096 51.2953 31.3611 36.5483 31.3611C21.8014 31.3611 9.84662 32.8096 9.84662 34.5964C9.84662 36.3832 21.8014 37.8317 36.5483 37.8317Z" fill="#EDA200"/>
<path fill-rule="evenodd" clip-rule="evenodd" d="M10.389 30.6736L10.409 31.5967H10.4521C10.667 35.0177 10.646 38.233 10.3887 41.242H62.7076C62.4514 38.2419 62.4296 35.0369 62.6424 31.6273H62.6987L62.7073 30.6754V30.674C63.0202 22.9478 66.0488 16.6063 72.9973 11.65C70.0214 10.5644 67.3549 11.9051 64.9974 15.6722C62.7878 13.7922 59.462 14.8329 58.8169 17.8044C58.4684 19.41 58.5304 21.3455 56.8657 23.0508C58.7699 23.4479 59.7428 22.6631 60.4827 22.1264C61.6171 21.3038 62.6631 21.9197 62.451 23.0469C62.1951 24.4058 60.2143 25.6418 57.7278 25.5527C54.3856 25.4326 52.9661 21.0839 53.0256 18.308C51.9215 17.9538 51.3691 17.7763 51.3691 17.7763C49.1802 20.9517 44.2 23.7765 40.46 21.9877C37.2771 20.4656 38.4686 15.7809 40.763 16.3857C42.3179 16.7959 41.1226 19.3334 43.9391 20.9795C42.7762 17.2798 47.9121 14.7313 45.3408 11.6068C43.809 9.74543 40.4401 9.64707 38.7187 11.9408C42.0135 5.45344 38.1107 4.72534 36.5476 0.395935C34.9845 4.7257 31.0817 5.45344 34.3765 11.9408C32.6551 9.64707 29.2862 9.74543 27.7544 11.6068C25.1831 14.7313 30.319 17.2798 29.1561 20.9795C31.9727 19.3337 30.7773 16.7959 32.3322 16.3857C34.6267 15.7809 35.8181 20.4656 32.6352 21.9877C28.8949 23.7768 23.9151 20.9517 21.7261 17.7763C21.7261 17.7763 21.1741 17.9534 20.0696 18.308C20.1291 21.0839 18.7096 25.4326 15.3674 25.5527C12.8809 25.6421 10.8997 24.4062 10.6442 23.0469C10.4322 21.9193 11.4782 21.3038 12.6125 22.1264C13.3528 22.6631 14.3257 23.4479 16.2295 23.0508C14.5648 21.3452 14.6269 19.41 14.2783 17.8044C13.6332 14.8329 10.3071 13.7922 8.09782 15.6722C5.74031 11.9051 3.07381 10.5644 0.0979614 11.65C7.04754 16.6059 10.0758 22.9475 10.389 30.6736Z" fill="#FFB605"/>
<path fill-rule="evenodd" clip-rule="evenodd" d="M36.5483 47.483C51.2551 47.483 63.25 46.0297 63.25 44.2477C63.25 42.4658 51.2551 41.0125 36.5483 41.0125C21.8416 41.0125 9.84662 42.4658 9.84662 44.2477C9.84698 46.0297 21.8416 47.483 36.5483 47.483Z" fill="#EDA200"/>
<path fill-rule="evenodd" clip-rule="evenodd" d="M63.25 43.8593V41.5053C63.25 39.7187 51.2953 38.27 36.5483 38.27C21.8013 38.27 9.84662 39.7184 9.84662 41.5053V43.8058H9.85232C10.089 42.0438 21.9492 40.6243 36.5483 40.6243C51.295 40.624 63.25 42.0727 63.25 43.8593Z" fill="#FFE68C"/>
<path fill-rule="evenodd" clip-rule="evenodd" d="M63.25 44.2477V41.8937C63.25 40.1068 51.2953 38.6584 36.5483 38.6584C21.8013 38.6584 9.84662 40.1068 9.84662 41.8937V44.1942H9.85232C10.089 42.4322 21.9492 41.0128 36.5483 41.0128C51.295 41.0124 63.25 42.4608 63.25 44.2477Z" fill="#FFD061"/>
<path fill-rule="evenodd" clip-rule="evenodd" d="M63.25 34.1558V31.8019C63.25 30.015 51.2953 28.5666 36.5483 28.5666C21.8013 28.5666 9.84662 30.015 9.84662 31.8019V34.102H9.85232C10.089 32.34 21.9492 30.9205 36.5483 30.9205C51.295 30.9205 63.25 32.3693 63.25 34.1558Z" fill="#FFE68C"/>
<path fill-rule="evenodd" clip-rule="evenodd" d="M63.25 34.5963V32.2424C63.25 30.4558 51.2953 29.0071 36.5483 29.0071C21.8013 29.0071 9.84662 30.4554 9.84662 32.2424V34.5425H9.85232C10.089 32.7805 21.9492 31.361 36.5483 31.361C51.295 31.3614 63.25 32.8097 63.25 34.5963Z" fill="#FFD061"/>
<path d="M36.5483 45.1287C49.4405 45.1287 59.8917 44.2073 59.8917 43.0706C59.8917 41.9339 49.4405 41.0125 36.5483 41.0125C23.6561 41.0125 13.2048 41.9339 13.2048 43.0706C13.2048 44.2073 23.6561 45.1287 36.5483 45.1287Z" fill="#CF6B00"/>
<path fill-rule="evenodd" clip-rule="evenodd" d="M34.0903 20.6927C35.0758 19.9774 35.7034 19.8409 35.9731 20.2825C35.3805 26.3439 23.7593 26.0467 21.3494 19.5212C22.167 28.1238 13.242 29.3237 10.8994 24.1001C11.1286 24.1379 11.2423 24.1379 11.2401 24.1001C12.0295 24.933 13.1358 25.4113 14.5581 25.5346C16.2891 25.7171 17.6498 25.0474 18.6402 23.5256C19.6231 21.8617 20.0999 20.1417 20.0704 18.3658C21.1983 18.007 21.7625 17.8273 21.7625 17.8273C23.259 19.7953 25.0452 21.172 27.1215 21.9582C29.0186 22.6478 30.6847 22.7291 32.1202 22.2027C33.0148 21.8923 33.6716 21.3891 34.0903 20.6927Z" fill="#FFD061"/>
<path fill-rule="evenodd" clip-rule="evenodd" d="M39.0341 20.6927C38.0487 19.9774 37.4211 19.8409 37.1513 20.2825C37.744 26.3439 49.3651 26.0467 51.775 19.5212C50.9578 28.1238 59.8825 29.3237 62.2251 24.1001C61.9959 24.1379 61.8822 24.1379 61.8844 24.1001C61.095 24.933 59.9887 25.4113 58.5664 25.5346C56.8354 25.7171 55.4747 25.0474 54.4843 23.5256C53.5014 21.8617 53.0245 20.1417 53.0538 18.3658C51.9258 18.007 51.3616 17.8273 51.3616 17.8273C49.8651 19.7953 48.0789 21.172 46.0026 21.9582C44.1055 22.6478 42.4394 22.7291 41.0039 22.2027C40.1097 21.8923 39.4532 21.3891 39.0341 20.6927Z" fill="#FFD061"/>
<path fill-rule="evenodd" clip-rule="evenodd" d="M34.3071 37.9818L32.4054 35.0106L34.3071 32.0397H38.7897L40.6914 35.0106L38.7897 37.9818H34.3071Z" fill="#FFC642"/>
<path fill-rule="evenodd" clip-rule="evenodd" d="M34.5593 37.5202L32.9531 35.0105L34.5593 32.5009H38.5373L40.1436 35.0105L38.5373 37.5202H34.5593Z" fill="#FA2C0D"/>
<path fill-rule="evenodd" clip-rule="evenodd" d="M35.1566 36.4294H37.9404L38.8481 35.0106L37.9404 33.5922H35.1566L34.2485 35.0106L35.1566 36.4294Z" fill="#FF624A"/>
<path fill-rule="evenodd" clip-rule="evenodd" d="M37.9404 33.5921H35.1566L34.5593 32.5008H38.5373L37.9404 33.5921Z" fill="#E41E01"/>
<path fill-rule="evenodd" clip-rule="evenodd" d="M37.9404 36.4293H35.1566L34.5593 37.5202H38.5373L37.9404 36.4293Z" fill="#BA1900"/>
<path fill-rule="evenodd" clip-rule="evenodd" d="M35.1566 36.4295L34.2486 35.0107H32.9531L34.5593 37.5204L35.1566 36.4295Z" fill="#E41E01"/>
<path fill-rule="evenodd" clip-rule="evenodd" d="M37.9404 36.4295L38.8481 35.0107H40.1436L38.5373 37.5204L37.9404 36.4295Z" fill="#A11500"/>
<path fill-rule="evenodd" clip-rule="evenodd" d="M18.1402 38.5741L16.0906 35.9714L17.5956 33.0205L21.7903 32.6092L23.8399 35.2119L22.3349 38.1628L18.1402 38.5741Z" fill="#FFC642"/>
<path fill-rule="evenodd" clip-rule="evenodd" d="M18.3297 38.13L16.5913 35.9226L17.8679 33.4193L21.601 33.0533L23.3395 35.2611L22.0629 37.764L18.3297 38.13Z" fill="#FA2C0D"/>
<path fill-rule="evenodd" clip-rule="evenodd" d="M18.7895 37.0511L21.4022 36.7949L22.1235 35.38L21.1409 34.1323L18.5286 34.3886L17.8069 35.8034L18.7895 37.0511Z" fill="#FF624A"/>
<path fill-rule="evenodd" clip-rule="evenodd" d="M21.1409 34.1324L18.5285 34.3887L17.8678 33.4193L21.601 33.0533L21.1409 34.1324Z" fill="#E41E01"/>
<path fill-rule="evenodd" clip-rule="evenodd" d="M21.4021 36.7948L18.7895 37.051L18.3297 38.1298L22.0629 37.7638L21.4021 36.7948Z" fill="#BA1900"/>
<path fill-rule="evenodd" clip-rule="evenodd" d="M18.7895 37.0512L17.8069 35.8035L16.5913 35.9226L18.3298 38.13L18.7895 37.0512Z" fill="#E41E01"/>
<path fill-rule="evenodd" clip-rule="evenodd" d="M21.4022 36.795L22.1235 35.3801L23.3395 35.2611L22.0629 37.764L21.4022 36.795Z" fill="#A11500"/>
<path fill-rule="evenodd" clip-rule="evenodd" d="M54.9565 38.5741L57.0061 35.9714L55.5011 33.0205L51.3064 32.6092L49.2568 35.2119L50.7618 38.1628L54.9565 38.5741Z" fill="#FFC642"/>
<path fill-rule="evenodd" clip-rule="evenodd" d="M54.7673 38.1301L56.5057 35.9226L55.2288 33.4194L51.4956 33.0533L49.7571 35.2612L51.0337 37.7641L54.7673 38.1301Z" fill="#FA2C0D"/>
<path fill-rule="evenodd" clip-rule="evenodd" d="M54.3072 37.0512L51.6945 36.795L50.9732 35.3801L51.9557 34.1324L54.5681 34.3886L55.2898 35.8035L54.3072 37.0512Z" fill="#FF624A"/>
<path fill-rule="evenodd" clip-rule="evenodd" d="M51.9557 34.1325L54.5681 34.3887L55.2288 33.4194L51.4956 33.0533L51.9557 34.1325Z" fill="#E41E01"/>
<path fill-rule="evenodd" clip-rule="evenodd" d="M51.6945 36.795L54.3072 37.0513L54.7672 38.1301L51.0337 37.7641L51.6945 36.795Z" fill="#BA1900"/>
<path fill-rule="evenodd" clip-rule="evenodd" d="M54.3072 37.0512L55.2897 35.8035L56.5057 35.9226L54.7673 38.13L54.3072 37.0512Z" fill="#A11500"/>
<path fill-rule="evenodd" clip-rule="evenodd" d="M51.6945 36.795L50.9731 35.3801L49.7571 35.2611L51.0337 37.764L51.6945 36.795Z" fill="#E41E01"/>
<path fill-rule="evenodd" clip-rule="evenodd" d="M28.0535 36.6891C28.8853 36.6891 29.5635 36.0109 29.5635 35.1795C29.5635 34.3476 28.8853 33.6694 28.0535 33.6694C27.222 33.6694 26.5435 34.3476 26.5435 35.1795C26.5435 36.0109 27.222 36.6891 28.0535 36.6891Z" fill="#FFC642"/>
<path fill-rule="evenodd" clip-rule="evenodd" d="M28.0535 36.2603C28.649 36.2603 29.1348 35.7745 29.1348 35.1794C29.1348 34.5838 28.649 34.0981 28.0535 34.0981C27.458 34.0981 26.9722 34.5838 26.9722 35.1794C26.9722 35.7745 27.458 36.2603 28.0535 36.2603Z" fill="#4B95FF"/>
<path fill-rule="evenodd" clip-rule="evenodd" d="M27.7708 35.2877C28.0239 35.2877 28.2302 35.0814 28.2302 34.8283C28.2302 34.5753 28.0239 34.369 27.7708 34.369C27.5178 34.369 27.3115 34.5753 27.3115 34.8283C27.3115 35.0814 27.5178 35.2877 27.7708 35.2877Z" fill="#8ABBFF"/>
<path fill-rule="evenodd" clip-rule="evenodd" d="M27.1628 35.7925C27.5541 35.9179 27.9804 35.8716 28.3357 35.6652C28.691 35.4589 28.9423 35.1118 29.0274 34.7094C29.2726 35.2183 29.0848 35.8303 28.5966 36.1139C28.108 36.398 27.4836 36.2579 27.1628 35.7925Z" fill="#297EF5"/>
<path fill-rule="evenodd" clip-rule="evenodd" d="M12.5203 38.27C13.1917 38.27 13.7391 37.7226 13.7391 37.0512C13.7391 36.3797 13.1917 35.8323 12.5203 35.8323C11.8488 35.8323 11.3014 36.3801 11.3014 37.0512C11.3014 37.7223 11.8492 38.27 12.5203 38.27Z" fill="#FFC642"/>
<path fill-rule="evenodd" clip-rule="evenodd" d="M12.5202 37.9237C13.001 37.9237 13.393 37.5317 13.393 37.0509C13.393 36.5701 13.001 36.1781 12.5202 36.1781C12.0394 36.1781 11.6474 36.5701 11.6474 37.0509C11.6474 37.5317 12.0394 37.9237 12.5202 37.9237Z" fill="#4B95FF"/>
<path fill-rule="evenodd" clip-rule="evenodd" d="M12.2921 37.1389C12.4964 37.1389 12.6628 36.9724 12.6628 36.7682C12.6628 36.564 12.4964 36.3972 12.2921 36.3972C12.0879 36.3972 11.9211 36.564 11.9211 36.7682C11.9211 36.9721 12.0879 37.1389 12.2921 37.1389Z" fill="#8ABBFF"/>
<path fill-rule="evenodd" clip-rule="evenodd" d="M11.8015 37.5462C12.1172 37.6474 12.4615 37.61 12.7484 37.4436C13.0353 37.2768 13.2384 36.9967 13.3069 36.672C13.5047 37.0829 13.3532 37.5769 12.959 37.806C12.5645 38.0348 12.0602 37.9218 11.8015 37.5462Z" fill="#297EF5"/>
<path fill-rule="evenodd" clip-rule="evenodd" d="M44.9488 36.6891C45.7802 36.6891 46.4588 36.0109 46.4588 35.1795C46.4588 34.3476 45.7806 33.6694 44.9488 33.6694C44.117 33.6694 43.4388 34.3476 43.4388 35.1795C43.4388 36.0109 44.117 36.6891 44.9488 36.6891Z" fill="#FFC642"/>
<path fill-rule="evenodd" clip-rule="evenodd" d="M44.9488 36.2603C45.5443 36.2603 46.0297 35.7745 46.0297 35.1794C46.0297 34.5838 45.544 34.0981 44.9488 34.0981C44.3533 34.0981 43.8675 34.5838 43.8675 35.1794C43.8675 35.7745 44.3533 36.2603 44.9488 36.2603Z" fill="#4B95FF"/>
<path d="M44.6658 35.2877C44.9195 35.2877 45.1252 35.082 45.1252 34.8283C45.1252 34.5746 44.9195 34.3689 44.6658 34.3689C44.4121 34.3689 44.2064 34.5746 44.2064 34.8283C44.2064 35.082 44.4121 35.2877 44.6658 35.2877Z" fill="#8ABBFF"/>
<path fill-rule="evenodd" clip-rule="evenodd" d="M44.0582 35.7925C44.4495 35.918 44.8758 35.8717 45.2311 35.6653C45.5864 35.459 45.8377 35.1118 45.9229 34.7095C46.1681 35.2184 45.9802 35.8303 45.4916 36.114C45.003 36.398 44.3786 36.258 44.0582 35.7925Z" fill="#297EF5"/>
<path fill-rule="evenodd" clip-rule="evenodd" d="M60.4819 38.27C61.1533 38.27 61.7008 37.7226 61.7008 37.0512C61.7008 36.3797 61.1533 35.8323 60.4819 35.8323C59.8105 35.8323 59.2631 36.3801 59.2631 37.0512C59.2627 37.7223 59.8105 38.27 60.4819 38.27Z" fill="#FFC642"/>
<path fill-rule="evenodd" clip-rule="evenodd" d="M60.482 37.9237C60.9628 37.9237 61.3548 37.5317 61.3548 37.0509C61.3548 36.5701 60.9628 36.1781 60.482 36.1781C60.0012 36.1781 59.6092 36.5701 59.6092 37.0509C59.6092 37.5317 60.0012 37.9237 60.482 37.9237Z" fill="#4B95FF"/>
<path fill-rule="evenodd" clip-rule="evenodd" d="M60.2535 37.139C60.4577 37.139 60.6245 36.9726 60.6245 36.7683C60.6245 36.5641 60.4581 36.3973 60.2535 36.3973C60.0493 36.3973 59.8825 36.5641 59.8825 36.7683C59.8829 36.9722 60.0493 37.139 60.2535 37.139Z" fill="#8ABBFF"/>
<path fill-rule="evenodd" clip-rule="evenodd" d="M59.7628 37.5463C60.0786 37.6475 60.4228 37.6101 60.7097 37.4436C60.9966 37.2768 61.1994 36.9967 61.2682 36.6721C61.466 37.083 61.3145 37.5769 60.9204 37.8061C60.5258 38.0349 60.0216 37.9219 59.7628 37.5463Z" fill="#297EF5"/>
<path fill-rule="evenodd" clip-rule="evenodd" d="M36.5483 27.584C37.5077 27.584 38.2904 26.8014 38.2904 25.842C38.2904 24.8826 37.5077 24.1 36.5483 24.1C35.5889 24.1 34.8063 24.8826 34.8063 25.842C34.8067 26.8018 35.5889 27.584 36.5483 27.584Z" fill="#FFC642"/>
<path fill-rule="evenodd" clip-rule="evenodd" d="M36.5484 27.2542C37.326 27.2542 37.9601 26.6201 37.9601 25.8425C37.9601 25.0649 37.326 24.4308 36.5484 24.4308C35.7708 24.4308 35.1367 25.0652 35.1367 25.8425C35.1367 26.6201 35.7711 27.2542 36.5484 27.2542Z" fill="#E41E01"/>
<path fill-rule="evenodd" clip-rule="evenodd" d="M36.1513 26.1461C36.5512 26.1461 36.8773 25.82 36.8773 25.4202C36.8773 25.0203 36.5512 24.6942 36.1513 24.6942C35.7515 24.6942 35.4254 25.0203 35.4254 25.4202C35.4254 25.82 35.7515 26.1461 36.1513 26.1461Z" fill="#FA2C0D"/>
<path fill-rule="evenodd" clip-rule="evenodd" d="M35.3495 26.588C35.8873 26.8778 36.5466 26.8179 37.0234 26.4362C37.5006 26.0545 37.7034 25.4244 37.5388 24.8364C37.9269 25.2184 38.0605 25.7893 37.8827 26.3036C37.7049 26.8182 37.2469 27.1846 36.7059 27.2452C36.1645 27.3061 35.6371 27.0503 35.3495 26.588Z" fill="#BA1900"/>
<path fill-rule="evenodd" clip-rule="evenodd" d="M35.9447 25.3309C36.0583 25.3309 36.151 25.2383 36.151 25.1246C36.151 25.0109 36.0583 24.9182 35.9447 24.9182C35.831 24.9182 35.7379 25.0109 35.7379 25.1246C35.7383 25.2383 35.831 25.3309 35.9447 25.3309Z" fill="#FFEFC9"/>
<path fill-rule="evenodd" clip-rule="evenodd" d="M23.0341 27.9858C23.9935 27.9858 24.7762 27.2032 24.7762 26.2438C24.7762 25.2844 23.9935 24.5018 23.0341 24.5018C22.0747 24.5018 21.2921 25.2844 21.2921 26.2438C21.2921 27.2032 22.0747 27.9858 23.0341 27.9858Z" fill="#FFC642"/>
<path fill-rule="evenodd" clip-rule="evenodd" d="M23.0342 27.6556C23.8118 27.6556 24.4458 27.0216 24.4458 26.244C24.4458 25.4664 23.8118 24.8323 23.0342 24.8323C22.2565 24.8323 21.6225 25.4667 21.6225 26.244C21.6225 27.0213 22.2565 27.6556 23.0342 27.6556Z" fill="#E41E01"/>
<path fill-rule="evenodd" clip-rule="evenodd" d="M22.6372 26.5476C23.037 26.5476 23.3631 26.2215 23.3631 25.8216C23.3631 25.4217 23.037 25.0956 22.6372 25.0956C22.2373 25.0956 21.9112 25.4217 21.9112 25.8216C21.9108 26.2215 22.2373 26.5476 22.6372 26.5476Z" fill="#FA2C0D"/>
<path fill-rule="evenodd" clip-rule="evenodd" d="M21.8353 26.9896C22.3731 27.2793 23.0324 27.2194 23.5093 26.8377C23.9865 26.4561 24.1892 25.8263 24.0246 25.2379C24.4127 25.62 24.5463 26.1909 24.3685 26.7052C24.1907 27.2198 23.7327 27.5862 23.1917 27.6471C22.6504 27.7077 22.1229 27.4518 21.8353 26.9896Z" fill="#BA1900"/>
<path fill-rule="evenodd" clip-rule="evenodd" d="M22.4303 25.7325C22.544 25.7325 22.6367 25.6399 22.6367 25.5262C22.6367 25.4125 22.544 25.3195 22.4303 25.3195C22.3166 25.3195 22.224 25.4121 22.224 25.5262C22.2236 25.6399 22.3166 25.7325 22.4303 25.7325Z" fill="#FFEFC9"/>
<path fill-rule="evenodd" clip-rule="evenodd" d="M50.0145 27.9858C50.9739 27.9858 51.7565 27.2032 51.7565 26.2438C51.7565 25.2844 50.9739 24.5018 50.0145 24.5018C49.0551 24.5018 48.2725 25.2844 48.2725 26.2438C48.2725 27.2032 49.0547 27.9858 50.0145 27.9858Z" fill="#FFC642"/>
<path fill-rule="evenodd" clip-rule="evenodd" d="M50.0146 27.6557C50.7923 27.6557 51.4263 27.0217 51.4263 26.2441C51.4263 25.4664 50.7923 24.8324 50.0146 24.8324C49.237 24.8324 48.603 25.4668 48.603 26.2441C48.603 27.0213 49.237 27.6557 50.0146 27.6557Z" fill="#E41E01"/>
<path fill-rule="evenodd" clip-rule="evenodd" d="M50.4115 26.5476C50.8114 26.5476 51.1375 26.2215 51.1375 25.8216C51.1375 25.4217 50.8114 25.0956 50.4115 25.0956C50.0117 25.0956 49.6856 25.4217 49.6856 25.8216C49.6856 26.2215 50.0117 26.5476 50.4115 26.5476Z" fill="#FA2C0D"/>
<path fill-rule="evenodd" clip-rule="evenodd" d="M51.213 26.9896C50.6752 27.2793 50.0159 27.2194 49.5391 26.8377C49.0619 26.4561 48.8591 25.8263 49.0237 25.2379C48.6356 25.62 48.502 26.1909 48.6798 26.7052C48.8577 27.2198 49.3156 27.5862 49.8566 27.6471C50.398 27.7077 50.9254 27.4518 51.213 26.9896Z" fill="#BA1900"/>
<path fill-rule="evenodd" clip-rule="evenodd" d="M50.6182 25.7325C50.7319 25.7325 50.8246 25.6399 50.8246 25.5262C50.8246 25.4125 50.7319 25.3195 50.6182 25.3195C50.5046 25.3195 50.4119 25.4121 50.4119 25.5262C50.4115 25.6399 50.5046 25.7325 50.6182 25.7325Z" fill="#FFEFC9"/>
<path fill-rule="evenodd" clip-rule="evenodd" d="M11.9579 29.7855C12.7141 29.7855 13.331 29.1685 13.331 28.4123C13.331 27.656 12.7141 27.0391 11.9579 27.0391C11.2016 27.0391 10.5847 27.656 10.5847 28.4123C10.5847 29.1685 11.2016 29.7855 11.9579 29.7855Z" fill="#FFC642"/>
<path fill-rule="evenodd" clip-rule="evenodd" d="M11.9579 29.5248C12.5709 29.5248 13.0706 29.0248 13.0706 28.4121C13.0706 27.7992 12.5706 27.2995 11.9579 27.2995C11.3449 27.2995 10.8453 27.7995 10.8453 28.4121C10.8453 29.0248 11.3449 29.5248 11.9579 29.5248Z" fill="#E41E01"/>
<path fill-rule="evenodd" clip-rule="evenodd" d="M11.645 28.6514C11.96 28.6514 12.2173 28.3944 12.2173 28.0794C12.2173 27.7643 11.9604 27.5074 11.645 27.5074C11.3299 27.5074 11.0726 27.7643 11.0726 28.0794C11.0726 28.3944 11.3296 28.6514 11.645 28.6514Z" fill="#FA2C0D"/>
<path fill-rule="evenodd" clip-rule="evenodd" d="M11.0127 28.9998C11.4368 29.2283 11.9561 29.1813 12.3324 28.8805C12.7084 28.5797 12.8684 28.0832 12.7387 27.6192C13.0445 27.9204 13.15 28.3701 13.0096 28.776C12.8695 29.1816 12.5085 29.4703 12.0819 29.5184C11.6553 29.5658 11.2394 29.3641 11.0127 28.9998Z" fill="#BA1900"/>
<path fill-rule="evenodd" clip-rule="evenodd" d="M11.4821 28.0092C11.5716 28.0092 11.645 27.9362 11.645 27.8463C11.645 27.7565 11.5719 27.6835 11.4821 27.6835C11.3923 27.6835 11.3192 27.7565 11.3192 27.8463C11.3192 27.9362 11.3923 28.0092 11.4821 28.0092Z" fill="#FFEFC9"/>
<path fill-rule="evenodd" clip-rule="evenodd" d="M61.1502 29.7855C61.9064 29.7855 62.5233 29.1685 62.5233 28.4123C62.5233 27.656 61.9064 27.0391 61.1502 27.0391C60.3939 27.0391 59.777 27.656 59.777 28.4123C59.777 29.1685 60.3939 29.7855 61.1502 29.7855Z" fill="#FFC642"/>
<path fill-rule="evenodd" clip-rule="evenodd" d="M61.1501 29.5247C61.7631 29.5247 62.2628 29.0247 62.2628 28.4121C62.2628 27.7991 61.7628 27.2994 61.1501 27.2994C60.5371 27.2994 60.0375 27.7994 60.0375 28.4121C60.0375 29.0247 60.5371 29.5247 61.1501 29.5247Z" fill="#E41E01"/>
<path fill-rule="evenodd" clip-rule="evenodd" d="M60.8369 28.6513C61.152 28.6513 61.4093 28.3944 61.4093 28.0793C61.4093 27.7643 61.1523 27.5073 60.8369 27.5073C60.5219 27.5073 60.2646 27.7643 60.2646 28.0793C60.2649 28.3944 60.5219 28.6513 60.8369 28.6513Z" fill="#FA2C0D"/>
<path fill-rule="evenodd" clip-rule="evenodd" d="M60.2051 28.9998C60.6292 29.2283 61.1484 29.1813 61.5248 28.8805C61.9008 28.5797 62.0608 28.0832 61.9311 27.6192C62.2369 27.9204 62.3423 28.3701 62.2019 28.776C62.0619 29.1816 61.7008 29.4703 61.2746 29.5184C60.8476 29.5658 60.4317 29.3641 60.2051 28.9998Z" fill="#BA1900"/>
<path d="M60.6744 28.0092C60.7644 28.0092 60.8373 27.9363 60.8373 27.8463C60.8373 27.7564 60.7644 27.6835 60.6744 27.6835C60.5845 27.6835 60.5115 27.7564 60.5115 27.8463C60.5115 27.9363 60.5845 28.0092 60.6744 28.0092Z" fill="#FFEFC9"/>
<path fill-rule="evenodd" clip-rule="evenodd" d="M34.6175 20.6156C34.1306 20.8037 33.5829 20.5618 33.3947 20.0746C33.2065 19.5877 33.4489 19.04 33.9357 18.8518C34.781 18.5239 35.6674 18.36 36.5484 18.36C37.4297 18.36 38.3157 18.5239 39.161 18.8518C39.6479 19.04 39.8902 19.5877 39.702 20.0746C39.5139 20.5618 38.9661 20.8037 38.4793 20.6156C37.8634 20.3768 37.208 20.2574 36.5484 20.2574C35.8887 20.2574 35.2336 20.3768 34.6175 20.6156Z" fill="#FFD061"/>
<path fill-rule="evenodd" clip-rule="evenodd" d="M9.33347 24.9343C9.07366 24.9086 8.88371 24.6773 8.90937 24.4175C8.93503 24.1577 9.16632 23.9678 9.42613 23.9931C9.64317 24.0148 9.85878 23.9749 10.0502 23.8836C10.2405 23.7928 10.4066 23.6513 10.5259 23.4688C10.6692 23.25 10.9629 23.1887 11.1817 23.3316C11.4005 23.4749 11.4622 23.7685 11.3189 23.9874C11.1015 24.3184 10.8014 24.5754 10.4575 24.7393C10.115 24.9029 9.72728 24.9742 9.33347 24.9343Z" fill="#FFE68C"/>
<path fill-rule="evenodd" clip-rule="evenodd" d="M63.7632 24.9343C64.023 24.9086 64.213 24.6773 64.1877 24.4175C64.162 24.1577 63.9307 23.9678 63.6709 23.9931C63.4539 24.0148 63.2383 23.9749 63.0469 23.8836C62.8566 23.7928 62.6905 23.6513 62.5711 23.4688C62.4278 23.25 62.1342 23.1887 61.9153 23.3316C61.6965 23.4749 61.6352 23.7685 61.7781 23.9874C61.9955 24.3184 62.2956 24.5754 62.6395 24.7393C62.9817 24.9029 63.3694 24.9742 63.7632 24.9343Z" fill="#FFE68C"/>
<path opacity="0.21" fill-rule="evenodd" clip-rule="evenodd" d="M10.389 30.6735L10.409 31.5966H10.4521C10.667 35.0175 10.646 38.2329 10.3886 41.2419L10.2967 43.6543C13.5352 41.9949 22.2072 41.3541 28.9426 41.1239C29.3214 34.9277 28.8139 28.6678 27.7729 22.1808C25.3345 21.442 23.0333 19.6718 21.7268 17.7762C21.7268 17.7762 21.1747 17.9533 20.0703 18.3079C20.1298 21.0838 18.7103 25.4325 15.3681 25.5526C12.8816 25.642 10.9004 24.4061 10.6449 23.0468C10.4328 21.9192 11.4788 21.3037 12.6132 22.1263C13.3534 22.663 14.3264 23.4477 16.2302 23.0507C14.5655 21.3451 14.6275 19.4099 14.279 17.8043C13.6339 14.8328 10.3077 13.7921 8.09849 15.6721C5.74098 11.905 3.07448 10.5643 0.0986328 11.6499C7.0475 16.6058 10.0757 22.9474 10.389 30.6735Z" fill="#FFEFC9"/>
<path fill-rule="evenodd" clip-rule="evenodd" d="M20.4603 18.3661C21.4763 18.3661 22.3049 17.5375 22.3049 16.5214C22.3049 15.5054 21.4763 14.6768 20.4603 14.6768C19.4442 14.6768 18.6156 15.5054 18.6156 16.5214C18.6156 17.5375 19.4442 18.3661 20.4603 18.3661Z" fill="#FFD777"/>
<path fill-rule="evenodd" clip-rule="evenodd" d="M52.6368 18.3662C53.6529 18.3662 54.4815 17.5375 54.4815 16.5215C54.4815 15.5054 53.6529 14.6768 52.6368 14.6768C51.6208 14.6768 50.7922 15.5054 50.7922 16.5215C50.7922 17.5375 51.6208 18.3662 52.6368 18.3662Z" fill="#FFD777"/>
<path fill-rule="evenodd" clip-rule="evenodd" d="M20.0832 17.2146C20.684 17.2146 21.1744 16.7245 21.1744 16.1233C21.1744 15.5221 20.6844 15.032 20.0832 15.032C19.4819 15.032 18.9919 15.5224 18.9919 16.1233C18.9919 16.7242 19.4819 17.2146 20.0832 17.2146Z" fill="#FFE68C"/>
<path fill-rule="evenodd" clip-rule="evenodd" d="M19.9028 16.0342C20.1078 16.0342 20.2749 15.867 20.2749 15.6621C20.2749 15.4572 20.1078 15.29 19.9028 15.29C19.6979 15.29 19.5308 15.4572 19.5308 15.6621C19.5308 15.867 19.6979 16.0342 19.9028 16.0342Z" fill="#FFEFC9"/>
<path fill-rule="evenodd" clip-rule="evenodd" d="M52.3157 17.2146C52.9166 17.2146 53.407 16.7245 53.407 16.1233C53.407 15.5221 52.917 15.032 52.3157 15.032C51.7145 15.032 51.2245 15.5224 51.2245 16.1233C51.2245 16.7242 51.7145 17.2146 52.3157 17.2146Z" fill="#FFE68C"/>
<path fill-rule="evenodd" clip-rule="evenodd" d="M52.1353 16.0342C52.3403 16.0342 52.5074 15.867 52.5074 15.6621C52.5074 15.4572 52.3403 15.29 52.1353 15.29C51.9304 15.29 51.7633 15.4572 51.7633 15.6621C51.7633 15.867 51.9304 16.0342 52.1353 16.0342Z" fill="#FFEFC9"/>
<path fill-rule="evenodd" clip-rule="evenodd" d="M35.4431 18.7054C36.7764 18.5054 38.4436 18.8704 35.5333 19.3073C32.623 19.7442 34.1099 18.9056 35.4431 18.7054Z" fill="#FFEFC9"/>
<path opacity="0.21" fill-rule="evenodd" clip-rule="evenodd" d="M62.7077 30.6735L62.6877 31.5966H62.6446C62.4297 35.0175 62.4507 38.2329 62.7077 41.2419L62.8 43.6543C59.5615 41.9949 50.8894 41.3541 44.1541 41.1239C43.7752 34.9277 44.2827 28.6678 45.3237 22.1808C47.7621 21.442 50.0633 19.6718 51.3699 17.7762C51.3699 17.7762 51.9219 17.9533 53.0264 18.3079C52.9668 21.0838 54.3863 25.4325 57.7285 25.5526C60.2154 25.642 62.1962 24.4061 62.4518 23.0468C62.6638 21.9192 61.6178 21.3037 60.4834 22.1263C59.7432 22.663 58.7703 23.4477 56.8664 23.0507C58.5311 21.3451 58.4691 19.4099 58.8177 17.8043C59.4627 14.8328 62.7886 13.7921 64.9982 15.6721C67.3557 11.905 70.0222 10.5643 72.998 11.6499C66.0492 16.6058 63.0209 22.9474 62.7077 30.6735Z" fill="#FFEFC9"/>
<path fill-rule="evenodd" clip-rule="evenodd" d="M34.4667 10.5687C34.0198 8.53263 35.0419 6.04861 36.3252 2.2381C34.6666 5.03931 32.6658 6.38397 34.4667 10.5687Z" fill="#FFD061"/>
<path fill-rule="evenodd" clip-rule="evenodd" d="M27.4797 13.8803C28.3906 12.2209 29.8269 11.2658 31.7881 11.0149C30.8287 10.6803 29.7677 10.8139 28.9216 11.3767C28.0756 11.9398 27.542 12.8664 27.4797 13.8803Z" fill="#FFD061"/>
<path fill-rule="evenodd" clip-rule="evenodd" d="M45.4666 13.8803C44.5557 12.2209 43.1194 11.2658 41.1582 11.0149C42.1176 10.6803 43.1786 10.8139 44.0246 11.3767C44.8707 11.9398 45.4046 12.8664 45.4666 13.8803Z" fill="#FFD061"/>
<path fill-rule="evenodd" clip-rule="evenodd" d="M34.8815 18.5572C34.6709 18.6124 34.5657 18.6402 34.5657 18.6402C34.4061 17.3391 33.8765 16.5771 32.9763 16.3533C32.1526 16.2271 31.6273 16.622 31.4007 17.5379C31.1359 19.137 30.3878 20.2843 29.1568 20.9796C30.6804 18.6609 29.9445 15.4523 32.2909 15.2185C34.2664 15.0215 34.709 17.0386 34.8815 18.5572Z" fill="#EDA200"/>
<path fill-rule="evenodd" clip-rule="evenodd" d="M38.2152 18.5572C38.4258 18.6124 38.5309 18.6402 38.5309 18.6402C38.6906 17.3391 39.2205 16.5771 40.1204 16.3533C40.944 16.2271 41.4694 16.622 41.696 17.5379C41.9608 19.137 42.7089 20.2843 43.9398 20.9796C42.4163 18.6609 43.1522 15.4523 40.8058 15.2185C38.8303 15.0215 38.3873 17.0386 38.2152 18.5572Z" fill="#EDA200"/>
<path fill-rule="evenodd" clip-rule="evenodd" d="M13.6336 18.2122C12.7669 16.6334 11.4005 15.725 9.53482 15.4862C10.4475 15.1676 11.4568 15.2952 12.2619 15.8305C13.0666 16.3658 13.5745 17.2471 13.6336 18.2122Z" fill="#FFD061"/>
<path fill-rule="evenodd" clip-rule="evenodd" d="M7.3312 18.9549C6.70645 16.5422 4.59735 14.504 1.90091 12.3699C4.29299 13.3208 7.04146 14.4081 7.3312 18.9549Z" fill="#FFD061"/>
<path fill-rule="evenodd" clip-rule="evenodd" d="M59.6319 18.2123C60.4987 16.6335 61.8651 15.725 63.7308 15.4863C62.818 15.1677 61.8087 15.2952 61.0037 15.8305C60.1989 16.3658 59.6911 17.2472 59.6319 18.2123Z" fill="#FFD061"/>
<path fill-rule="evenodd" clip-rule="evenodd" d="M65.9344 18.9549C66.5591 16.5422 68.6682 14.504 71.3647 12.3699C68.973 13.3208 66.2241 14.4081 65.9344 18.9549Z" fill="#FFD061"/>
</svg>
