<svg width="12" height="18" viewBox="0 0 12 18" fill="none" xmlns="http://www.w3.org/2000/svg">
<path d="M9.45126 7.16282C9.05581 7.9796 8.07311 8.3211 7.25641 7.92572C6.43963 7.53026 6.09812 6.54757 6.49357 5.73093C6.88903 4.914 7.87166 4.57257 8.68844 4.96795C9.50514 5.36349 9.84672 6.34613 9.45126 7.16282ZM5.31377 16.638L4.73966 16.3601L5.76809 14.2358L6.34222 14.5138L5.31377 16.638ZM3.65469 14.551L4.10497 13.6209L5.03505 14.0712L4.58477 15.0013L3.65469 14.551ZM2.89923 7.97764C2.79154 8.00767 2.70379 8.08591 2.66157 8.18944L1.10564 12.0091C0.818508 12.1242 0.51745 11.8369 0.63965 11.5368L2.22145 7.6536C2.26367 7.55007 2.35135 7.47184 2.45911 7.44181L3.47961 7.15734C3.72409 7.0892 3.9608 7.28762 3.93638 7.54024L3.92169 7.69291C3.92099 7.69304 3.92036 7.69298 3.91973 7.69316L2.89923 7.97764ZM2.46285 15.2459L1.75093 14.9012L2.72448 12.8904L3.43633 13.2351L2.46285 15.2459ZM5.83219 11.6403L5.17308 13.0016L4.73966 12.7917L5.39876 11.4305L5.83219 11.6403ZM4.03177 7.68187C5.74929 3.16257 9.38407 1.19035 10.5876 0.644596C10.7951 0.550434 11.0351 0.670599 11.086 0.892677C11.1059 0.979572 11.1233 1.06582 11.1411 1.15207C11.1031 1.15578 11.0648 1.16353 11.0277 1.18049C10.2553 1.53065 8.48182 2.46839 6.85615 4.28944C6.42632 4.51006 6.05762 4.85473 5.81965 5.30422C5.70249 5.52533 5.62501 5.7558 5.5804 5.98822C5.37781 6.31124 5.18426 6.65279 5.00256 7.01361C4.81423 7.38756 4.44843 7.63992 4.03177 7.68187ZM10.7662 10.1752C10.7247 10.0763 10.6685 9.98708 10.6005 9.90941C10.5113 9.80753 10.4919 9.66267 10.5514 9.54103C11.65 7.29128 12.4777 4.24664 11.6865 0.771544C11.5849 0.325447 11.191 -0.000968933 10.7336 1.90735e-06C10.5955 0.000324249 10.4613 0.0295582 10.3346 0.086895C9.26016 0.574337 5.92046 2.35145 3.96938 6.2938C3.89594 6.44226 3.74352 6.53192 3.57797 6.53179C3.48971 6.53179 3.401 6.54359 3.31519 6.56756L2.29458 6.85197C2.00645 6.93242 1.76702 7.14579 1.65433 7.42256L0.072533 11.3059C-0.0500546 11.6069 -0.0157977 11.9465 0.164256 12.2144C0.347168 12.4862 0.649551 12.6484 0.973528 12.6484C1.13391 12.6484 1.2946 12.6072 1.43825 12.5294L2.19117 12.1214C2.28555 12.0702 2.39016 12.1701 2.34341 12.2667L1.09705 14.8458C1.0064 15.0334 1.08487 15.259 1.27239 15.3498L2.36342 15.8782C2.4872 15.9382 2.53893 16.087 2.47906 16.2108L2.33199 16.5146C2.2602 16.6627 2.32222 16.841 2.47042 16.9129L3.46283 17.3932C3.61312 17.4659 3.79393 17.4031 3.86668 17.2528L3.99923 16.9791C4.06364 16.8462 4.2237 16.7904 4.35675 16.8549L5.21202 17.2692C5.4252 17.3724 5.68173 17.2833 5.78494 17.0701L6.93881 14.6869C6.98486 14.5917 7.12587 14.6115 7.14398 14.7156L7.25331 15.3431C7.33469 15.8105 7.74049 16.1517 8.215 16.1517H8.21513C8.569 16.1517 8.88509 15.967 9.06029 15.6573L11.1256 12.0079C11.2727 11.7477 11.2916 11.4278 11.1758 11.152L10.7662 10.1752Z" fill="black"/>
<path d="M3.45061 16.707L3.02002 16.4986L3.62651 15.2459L4.0571 15.4544L3.45061 16.707Z" fill="#FD7310"/>
<path d="M5.82403 13.9533L5.31812 13.7083L5.61489 13.0953L6.12088 13.3403L5.82403 13.9533Z" fill="#FD7310"/>
<path d="M4.22527 13.0604L3.81738 12.8628L4.0633 12.3549L4.47118 12.5524L4.22527 13.0604Z" fill="#FD7310"/>
<path d="M8.27075 7.79358C8.37322 7.77895 8.47309 7.75138 8.56931 7.71415V5.17919C8.47125 5.14107 8.37133 5.11458 8.27075 5.10021V7.79358Z" fill="black"/>
<path d="M8.75708 7.62595C8.81222 7.59427 8.86452 7.55769 8.91506 7.51838V5.37397C8.86565 5.33569 8.81259 5.30113 8.75708 5.26915V7.62595Z" fill="black"/>
<path d="M4.00704 7.63563C5.67102 3.25729 9.10536 1.23083 10.4831 0.569853C9.101 1.2328 5.64875 3.26944 3.99088 7.6768C3.97036 7.73138 3.88878 7.71233 3.89436 7.65429L3.91007 7.49166L3.89513 7.64686C3.89443 7.64699 3.89379 7.64692 3.89315 7.6471L2.8558 7.93629C2.74633 7.96681 2.65713 8.04634 2.61421 8.15157L1.0326 12.0343C0.859754 12.1036 0.682048 12.0294 0.591553 11.8941C0.689222 12.0407 0.888879 12.1162 1.07415 12.0159L2.85902 11.0487C3.00473 10.9697 3.18005 11.086 3.16293 11.2508C3.14029 11.4687 3.12177 11.6905 3.10758 11.9164C3.10054 12.0284 3.14498 12.1381 3.22853 12.213C3.28529 12.2639 3.36052 12.3286 3.45262 12.403C3.52509 12.4615 3.63322 12.4373 3.67382 12.3535L3.907 11.8719L4.28492 12.0548L4.69089 11.2163C4.77322 11.0463 4.92092 10.9294 5.08946 10.8786C5.17411 10.8531 5.24652 10.7977 5.28507 10.7181L6.48376 8.5018C6.52161 8.43183 6.50429 8.34499 6.44272 8.29459C5.74214 7.72105 5.41012 6.80493 5.57809 5.91911C5.37331 6.24582 5.17758 6.59144 4.99385 6.95634C4.80241 7.33646 4.43057 7.59299 4.00704 7.63563Z" fill="#FD7310"/>
<path d="M10.2229 10.4411C10.1233 10.2038 9.81679 10.1403 9.63128 10.3185L9.59592 10.3525C9.54138 10.4049 9.45601 10.3382 9.49392 10.2727C10.8388 7.95263 11.9809 4.67539 11.1375 0.874928C11.1504 0.935332 11.1627 0.995573 11.1752 1.05581C11.1367 1.05958 11.0979 1.06744 11.0602 1.08463C10.2774 1.43953 8.47988 2.38997 6.83219 4.23569C6.4188 4.44784 6.06135 4.77361 5.81982 5.19546C6.42321 4.14974 7.80992 3.67256 8.92731 4.14778C10.236 4.70436 10.7993 6.23397 10.1869 7.4988C9.67643 8.55313 8.51544 9.07806 7.41999 8.82957C7.33731 8.81084 7.24337 8.85854 7.21088 8.93687L6.25816 11.2368C6.21922 11.3172 6.22082 11.409 6.25343 11.4921C6.31731 11.6549 6.317 11.8421 6.23515 12.0111L5.89444 12.7148L6.59458 13.0538L6.30369 13.6547C6.25816 13.7486 6.31251 13.8603 6.41451 13.8828C6.42532 13.8852 6.43612 13.8875 6.44699 13.8898C6.5649 13.915 6.68788 13.8795 6.77478 13.7959C6.89026 13.6848 7.07156 13.5043 7.29682 13.26C7.36153 13.1897 7.47881 13.2241 7.49518 13.3181L7.84638 15.3344C7.90533 15.6733 8.3566 15.7513 8.52598 15.452L10.6191 11.7533C10.6749 11.6547 10.6819 11.5358 10.6381 11.4313L10.2229 10.4411Z" fill="#FD7310"/>
</svg>
