<svg width="38" height="54" viewBox="0 0 38 54" fill="none" xmlns="http://www.w3.org/2000/svg">
<path d="M29.292 22.1995C28.0664 24.7309 25.0207 25.7893 22.4896 24.5639C19.9581 23.3383 18.8997 20.2927 20.1253 17.7617C21.351 15.2298 24.3964 14.1716 26.9278 15.397C29.459 16.6229 30.5176 19.6684 29.292 22.1995ZM16.4688 51.5657L14.6895 50.7042L17.8769 44.1207L19.6562 44.9822L16.4688 51.5657ZM11.3269 45.0974L12.7224 42.2149L15.605 43.6104L14.2095 46.493L11.3269 45.0974ZM8.98551 24.7249C8.65173 24.8179 8.37977 25.0604 8.24892 25.3813L3.42669 37.2195C2.53678 37.5762 1.60372 36.6857 1.98245 35.7558L6.88487 23.7206C7.01572 23.3997 7.28748 23.1572 7.62146 23.0642L10.7843 22.1825C11.542 21.9713 12.2756 22.5863 12.1999 23.3692L12.1544 23.8424C12.1522 23.8428 12.1503 23.8426 12.1483 23.8432L8.98551 24.7249ZM7.63302 47.251L5.42661 46.1829L8.4439 39.9509L10.6501 41.0191L7.63302 47.251ZM18.0755 36.0764L16.0328 40.2955L14.6895 39.6449L16.7322 35.4261L18.0755 36.0764ZM12.4956 23.8082C17.8186 9.80165 29.0838 3.6892 32.8137 1.99778C33.4569 1.70595 34.2008 2.07837 34.3585 2.76665C34.42 3.03596 34.4741 3.30326 34.5292 3.57056C34.4115 3.58208 34.2929 3.60611 34.1778 3.65866C31.784 4.7439 26.2874 7.6502 21.2491 13.2941C19.9169 13.9779 18.7742 15.0461 18.0366 16.4392C17.6735 17.1245 17.4334 17.8388 17.2952 18.5591C16.6673 19.5602 16.0674 20.6188 15.5043 21.7371C14.9206 22.896 13.7869 23.6782 12.4956 23.8082ZM33.3673 31.5357C33.2387 31.2293 33.0645 30.9526 32.8537 30.7119C32.5774 30.3962 32.5174 29.9472 32.7016 29.5702C36.1064 22.5976 38.6719 13.1615 36.2196 2.39123C35.9047 1.00866 34.6838 -0.00299835 33.2662 7.62939e-06C32.8382 0.00100708 32.4223 0.09161 32.0298 0.269314C28.6997 1.78003 18.3491 7.28779 12.3022 19.5062C12.0746 19.9663 11.6022 20.2442 11.0891 20.2438C10.8155 20.2438 10.5406 20.2804 10.2747 20.3546L7.11153 21.2361C6.21851 21.4854 5.47647 22.1467 5.12722 23.0045L0.224799 35.0399C-0.155133 35.973 -0.0489612 37.0255 0.509073 37.8556C1.07597 38.698 2.01313 39.2007 3.01722 39.2007C3.51429 39.2007 4.01231 39.0732 4.45751 38.8319L6.79102 37.5674C7.08355 37.4088 7.40776 37.7183 7.26285 38.0179L3.40006 46.0112C3.11909 46.5925 3.36232 47.2917 3.94348 47.5731L7.32487 49.2109C7.70851 49.3967 7.86884 49.8581 7.68328 50.2416L7.22746 51.1832C7.00496 51.6422 7.19718 52.1949 7.6565 52.4177L10.7322 53.9063C11.198 54.1315 11.7584 53.9368 11.9839 53.4712L12.3947 52.6228C12.5943 52.2108 13.0904 52.0381 13.5027 52.2379L16.1535 53.5219C16.8142 53.8417 17.6092 53.5655 17.9291 52.9048L21.5052 45.5186C21.648 45.2237 22.085 45.2849 22.1411 45.6078L22.48 47.5524C22.7322 49.0011 23.9899 50.0583 25.4605 50.0583H25.4609C26.5576 50.0583 27.5373 49.486 28.0803 48.5263L34.4811 37.2158C34.9371 36.4093 34.9957 35.4179 34.6368 34.563L33.3673 31.5357Z" fill="white"/>
<path d="M10.6941 51.7794L9.35962 51.1336L11.2393 47.251L12.5738 47.8973L10.6941 51.7794Z" fill="#FD7310"/>
<path d="M18.0502 43.2449L16.4822 42.4857L17.402 40.5859L18.9702 41.3451L18.0502 43.2449Z" fill="#FD7310"/>
<path d="M13.0954 40.4777L11.8313 39.8655L12.5935 38.2912L13.8576 38.9033L13.0954 40.4777Z" fill="#FD7310"/>
<path d="M25.6335 24.1544C25.9511 24.1091 26.2607 24.0236 26.5588 23.9082V16.0517C26.255 15.9336 25.9452 15.8515 25.6335 15.8069V24.1544Z" fill="white"/>
<path d="M27.1404 23.6349C27.3113 23.5367 27.4734 23.4233 27.63 23.3015V16.6554C27.4769 16.5368 27.3124 16.4296 27.1404 16.3305V23.6349Z" fill="white"/>
<path d="M12.4185 23.6649C17.5756 10.0952 28.2196 3.8147 32.4895 1.76614C28.2061 3.82081 17.5066 10.1329 12.3684 23.7925C12.3048 23.9616 12.052 23.9026 12.0693 23.7227L12.118 23.2187L12.0717 23.6997C12.0695 23.7001 12.0675 23.6999 12.0655 23.7004L8.85052 24.5967C8.51123 24.6913 8.23479 24.9378 8.10178 25.2639L3.19994 37.2976C2.66424 37.5123 2.11348 37.2823 1.83301 36.8629C2.13571 37.3175 2.7545 37.5514 3.32872 37.2404L8.8605 34.2431C9.31209 33.9982 9.85547 34.3585 9.8024 34.8693C9.73223 35.5447 9.67483 36.2321 9.63087 36.9321C9.60904 37.2794 9.74678 37.6192 10.0057 37.8514C10.1816 38.009 10.4148 38.2098 10.7002 38.4401C10.9248 38.6214 11.2599 38.5467 11.3858 38.2868L12.1085 36.7942L13.2798 37.3612L14.538 34.7624C14.7931 34.2355 15.2509 33.8731 15.7732 33.7158C16.0356 33.6366 16.26 33.4651 16.3795 33.2182L20.0946 26.3494C20.2118 26.1325 20.1582 25.8634 19.9674 25.7072C17.7961 23.9296 16.767 21.0903 17.2876 18.3449C16.653 19.3575 16.0463 20.4287 15.4769 21.5596C14.8836 22.7377 13.7311 23.5327 12.4185 23.6649Z" fill="#FD7310"/>
<path d="M31.6835 32.3597C31.3748 31.6244 30.4248 31.4276 29.8498 31.9799L29.7403 32.0852C29.5712 32.2475 29.3066 32.0408 29.4241 31.838C33.5921 24.6473 37.1319 14.4903 34.518 2.71165C34.5581 2.89886 34.5962 3.08557 34.6347 3.27227C34.5155 3.28394 34.3952 3.3083 34.2786 3.36157C31.8524 4.4615 26.2813 7.40718 21.1747 13.1276C19.8935 13.7851 18.7857 14.7947 18.0371 16.1021C19.9072 12.8612 24.205 11.3823 27.668 12.8551C31.724 14.5801 33.4698 19.3208 31.5718 23.2408C29.9898 26.5085 26.3915 28.1354 22.9965 27.3652C22.7402 27.3072 22.4491 27.455 22.3484 27.6978L19.3956 34.8259C19.2749 35.075 19.2799 35.3595 19.381 35.617C19.5789 36.1218 19.578 36.7018 19.3243 37.2257L18.2684 39.4067L20.4383 40.4572L19.5367 42.3196C19.3956 42.6107 19.5641 42.957 19.8802 43.0265C19.9137 43.034 19.9472 43.0412 19.9809 43.0483C20.3463 43.1264 20.7274 43.0164 20.9968 42.7574C21.3547 42.4129 21.9166 41.8535 22.6147 41.0962C22.8153 40.8784 23.1787 40.985 23.2295 41.2765L24.318 47.5254C24.5006 48.5757 25.8993 48.8176 26.4242 47.8899L32.9113 36.4268C33.0843 36.121 33.1061 35.7526 32.9701 35.4285L31.6835 32.3597Z" fill="#FD7310"/>
</svg>
