<svg width="415" height="72" viewBox="0 0 415 72" fill="none" xmlns="http://www.w3.org/2000/svg">
<g clip-path="url(#clip0_2381_16476)">
<path d="M89.4925 22.4517V32.7544H95.2205C97.569 32.7544 99.2874 32.3537 100.376 31.6096C101.521 30.8656 102.094 29.6063 102.094 27.8892C102.094 26.1149 101.579 24.7984 100.49 23.8826C99.402 22.9668 98.0272 22.5089 96.2515 22.5089H89.4925V22.4517ZM93.9031 44.0873H89.4925V62.1171H75.0006V10.3746H95.9079C103.125 10.3746 108.166 11.5766 111.087 13.9233C114.008 16.2128 115.498 19.9905 115.498 25.1418C115.498 28.2326 114.868 30.9228 113.665 33.2123C112.462 35.4445 110.572 36.9899 108.051 37.7913C109.025 38.2491 109.77 38.5353 110.285 38.8215C110.801 39.0505 111.374 39.4511 112.061 39.9663C112.748 40.4242 113.264 40.9965 113.607 41.5689C113.951 42.1413 114.238 42.8854 114.581 43.8012C114.925 44.717 115.211 45.8045 115.326 47.1209C115.498 48.3801 115.555 49.8683 115.555 51.5854C115.555 56.2789 115.67 58.969 115.841 59.6559C116.07 60.3427 116.471 60.6861 117.044 60.6861V62.2888H102.381C101.865 60.7434 101.636 57.7098 101.636 53.2453C101.636 49.6966 101.12 47.3499 100.147 46.1479C99.2301 44.717 97.168 44.0873 93.9031 44.0873Z" fill="#FD7310"/>
<path d="M138.524 33.4412C136.577 33.4412 135.145 34.4143 134.228 36.3031C133.312 38.1919 132.854 40.3669 132.854 42.9426C132.854 46.3768 133.369 48.9525 134.343 50.6124C135.317 52.2723 136.691 53.1308 138.41 53.1308C142.076 53.1308 143.966 49.7538 143.966 42.9426C143.966 40.138 143.45 37.7912 142.477 36.0169C141.446 34.2425 140.185 33.3267 138.524 33.4412ZM120.08 43.7439C120.08 37.3334 121.741 32.3537 125.063 28.805C128.386 25.1991 132.796 23.4247 138.352 23.4247C144.023 23.4247 148.491 25.1991 151.756 28.805C155.078 32.3537 156.739 37.0472 156.739 42.9998C156.739 49.6393 155.021 54.6762 151.641 58.1105C148.262 61.5447 143.851 63.2618 138.41 63.2618C133.025 63.2618 128.615 61.6019 125.178 58.2249C121.798 54.7907 120.08 49.9828 120.08 43.7439Z" fill="#FD7310"/>
<path d="M196.32 38.8215H183.375C183.317 37.2189 182.859 35.9597 182 34.9294C181.198 33.8991 180.11 33.4412 178.678 33.4412C174.954 33.4412 173.064 36.8755 173.064 43.7439C173.064 46.663 173.522 48.9525 174.496 50.6696C175.413 52.3295 176.845 53.1881 178.678 53.1881C181.542 53.1881 183.203 51.2992 183.661 47.5788H196.549C196.034 52.9591 194.086 56.9085 190.821 59.4269C187.556 61.9453 183.489 63.2618 178.678 63.2618C173.293 63.2618 168.883 61.5447 165.446 58.1677C162.009 54.7335 160.291 49.9255 160.291 43.6867C160.291 37.3906 162.009 32.4682 165.389 28.8622C168.768 25.1991 173.236 23.4247 178.678 23.4247C183.375 23.4247 187.384 24.6839 190.649 27.2596C193.972 29.7208 195.862 33.6129 196.32 38.8215Z" fill="#FD7310"/>
<path d="M215.509 48.7808L213.103 51.5854V62.1743H200.33V10.3746H213.103V35.9597L221.294 24.455H236.244L224.33 39.0505L237.791 62.1171H222.44L215.509 48.7808Z" fill="#FD7310"/>
<path d="M251.08 39.0505H262.708C262.708 37.3334 262.135 35.788 260.989 34.5287C259.901 33.2123 258.583 32.5254 257.037 32.5254C255.147 32.5254 253.657 33.0978 252.626 34.2998C251.595 35.4445 251.08 37.0472 251.08 39.0505ZM275.481 46.663H251.08C251.08 48.838 251.71 50.6124 252.913 51.9861C254.116 53.3598 255.662 54.0466 257.381 54.0466C259.672 54.0466 261.276 52.9591 262.192 50.7269H274.393C273.362 55.0196 271.185 58.2249 267.863 60.2282C264.541 62.1743 260.76 63.2046 256.579 63.2046C251.194 63.2046 246.784 61.4875 243.347 58.0532C239.967 54.619 238.249 49.8111 238.249 43.6867C238.249 37.6195 239.967 32.6971 243.404 29.034C246.898 25.3135 251.252 23.4247 256.464 23.4247C262.364 23.4247 267.004 25.5997 270.383 29.8925C273.877 34.1853 275.538 39.7946 275.481 46.663Z" fill="#FD7310"/>
<path d="M300.455 51.4137V62.1171C297.42 62.2888 295.014 62.4032 293.181 62.4032C291.405 62.4605 289.687 62.346 288.14 62.0598C286.594 61.7164 285.448 61.3157 284.703 60.7434C283.959 60.2282 283.329 59.3697 282.813 58.2249C282.298 57.0802 281.954 55.821 281.839 54.39C281.725 53.0163 281.667 51.1275 281.667 48.7808V33.0978H277.142V24.455H281.897V12.7213H294.498V24.455H300.627V33.0978H294.498V46.7775C294.498 48.6091 294.727 49.8683 295.186 50.4979C295.701 51.1275 296.789 51.4137 298.508 51.4137H300.455Z" fill="#FD7310"/>
<path d="M379.846 62.8611L377.783 27.0306L389.411 26.3438L389.755 31.9531C392.447 27.3741 395.941 24.9129 400.237 24.6839C408.543 24.226 412.953 29.0912 413.584 39.3367L414.844 60.8006L402.07 61.5447L400.982 42.5992C400.696 38.1347 399.092 36.0169 396.113 36.1886C394.223 36.3031 392.963 36.9899 392.275 38.2491C391.645 39.5084 391.416 41.3972 391.531 43.8584L392.619 62.1171L379.846 62.8611Z" fill="#1A1E28"/>
<path d="M375.492 28.576L370.91 64.1776L359.167 62.6894L359.855 57.4808C358.022 59.6558 356.189 61.144 354.356 61.8309C352.523 62.4605 350.289 62.6322 347.54 62.2888C343.988 61.8309 341.353 60.2282 339.635 57.4808C337.917 54.7334 337.401 50.8413 338.031 45.8617L340.781 24.226L353.439 25.8287L350.976 45.0604C350.69 47.4071 350.805 49.1242 351.435 50.2117C352.065 51.242 353.153 51.8716 354.7 52.1005C356.418 52.3295 357.793 51.7571 358.709 50.4979C359.626 49.1814 360.256 47.0637 360.657 44.2018L362.833 27.0879L375.492 28.576Z" fill="#1A1E28"/>
<path d="M320.675 61.4875C320.79 61.373 320.904 61.2585 320.962 61.0868C320.962 61.0868 320.962 61.0296 321.019 61.0296C321.133 60.9151 321.191 60.8006 321.248 60.6289C321.248 60.5717 321.305 60.5717 321.305 60.5144C321.363 60.3999 321.42 60.2855 321.534 60.171C321.534 60.1138 321.592 60.0565 321.592 59.9993C321.649 59.8848 321.706 59.7703 321.764 59.6559C321.764 59.5986 321.821 59.5414 321.821 59.4269C321.878 59.3124 321.878 59.198 321.935 59.0835C321.935 58.969 321.993 58.9118 321.993 58.7973C321.993 58.6828 322.05 58.6256 322.05 58.5111C322.05 58.3966 322.107 58.2822 322.107 58.1677C322.107 58.1105 322.107 57.996 322.165 57.9387C322.165 57.767 322.222 57.5381 322.222 57.3091C322.222 57.1374 322.222 56.9085 322.165 56.7368C322.165 56.6795 322.165 56.6795 322.165 56.6223C322.165 56.4506 322.107 56.2789 322.107 56.1072C322.107 56.0499 322.107 56.0499 322.107 55.9927C322.05 55.821 322.05 55.7065 321.993 55.5348C321.993 55.4775 321.993 55.4775 321.935 55.4203C321.878 55.2486 321.821 55.1341 321.764 54.9624C321.764 54.9052 321.706 54.8479 321.706 54.7907C321.649 54.6762 321.592 54.5045 321.534 54.39C321.477 54.3328 321.477 54.2756 321.42 54.2183C321.363 54.1611 321.305 54.0466 321.305 53.9894C321.248 53.8749 321.133 53.7604 321.076 53.646C321.019 53.5887 321.019 53.5315 320.962 53.4742C320.904 53.417 320.847 53.3025 320.79 53.2453L320.733 53.1881C320.618 53.0163 320.446 52.9019 320.332 52.7874L320.274 52.7302C319.988 52.5012 319.701 52.2723 319.415 52.0433C319.415 52.0433 319.358 52.0433 319.358 51.9861C319.243 51.9288 319.129 51.8716 319.014 51.7571C319.014 51.7571 318.957 51.7571 318.957 51.6999C318.728 51.5854 318.499 51.4709 318.269 51.4137C318.212 51.4137 318.155 51.3565 318.098 51.3565C317.983 51.3565 317.926 51.2992 317.811 51.2992C317.697 51.2992 317.639 51.242 317.525 51.242C317.468 51.242 317.353 51.1848 317.296 51.1848C317.181 51.1848 317.067 51.1275 316.952 51.1275C316.895 51.1275 316.837 51.1275 316.78 51.1275C316.608 51.1275 316.379 51.0703 316.207 51.0703C312.771 51.0703 310.021 53.8749 310.021 57.2519C310.021 60.6861 312.828 63.4335 316.207 63.4335C316.436 63.4335 316.666 63.4335 316.895 63.3763C316.952 63.3763 317.009 63.3763 317.067 63.319C317.238 63.319 317.353 63.2618 317.525 63.2618C317.582 63.2618 317.639 63.2046 317.697 63.2046C317.868 63.1473 317.983 63.1473 318.155 63.0901C318.212 63.0901 318.269 63.0329 318.327 63.0329C318.499 62.9756 318.613 62.9184 318.728 62.8611C318.785 62.8611 318.842 62.8039 318.9 62.8039C319.071 62.7467 319.186 62.6322 319.358 62.575C319.415 62.575 319.415 62.5177 319.472 62.5177C319.644 62.4032 319.759 62.346 319.931 62.2315L319.988 62.1743C320.16 62.0598 320.274 61.9453 320.446 61.8309C320.446 61.8309 320.446 61.8309 320.503 61.7736C320.389 61.7736 320.561 61.6592 320.675 61.4875Z" fill="#FD7310"/>
<path d="M330.298 33.7846L335.625 33.155L334.652 24.9701L329.325 25.5997C328.866 22.9668 328.981 21.3069 329.554 20.6773C330.184 19.9905 331.673 19.5326 333.964 19.2464L332.933 10.3174L327.492 10.947C325.315 11.1759 323.482 11.5766 322.107 12.149C320.79 12.6641 319.587 13.5227 318.499 14.6102C317.468 15.7549 316.837 17.3576 316.551 19.4181C316.265 21.4214 316.322 23.9971 316.723 27.0306L312.427 27.5458L313.401 35.7307L317.582 35.2156L319.3 49.8683C322.165 51.1275 324.169 54.0466 324.169 57.3664C324.169 59.3124 323.482 61.0868 322.394 62.4605L333.506 61.144L330.298 33.7846Z" fill="#1A1E28"/>
</g>
<path d="M38.9026 29.6516C37.2966 32.9942 33.2198 34.4179 29.8842 32.8085C26.5487 31.1991 25.1279 27.1138 26.734 23.7712C28.34 20.4287 32.4168 19.005 35.7523 20.6144C39.1497 22.2238 40.5086 26.2472 38.9026 29.6516ZM21.8541 68.7099L19.5069 67.5338L23.769 58.7442L26.1163 59.9203L21.8541 68.7099ZM15.0595 60.106L16.9126 56.2682L20.7423 58.1252L18.8892 61.9629L15.0595 60.106ZM11.9092 32.9942C11.4768 33.118 11.1062 33.4275 10.9209 33.8608L4.55861 49.645C3.38498 50.1402 2.14959 48.9641 2.64375 47.7262L9.12957 31.6324C9.31488 31.1991 9.6855 30.8896 10.1179 30.7658L14.3182 29.5897C15.3066 29.2803 16.2949 30.1468 16.1713 31.1991L16.1096 31.8181L11.9092 32.9942ZM10.1179 62.9533L7.21471 61.5296L11.2297 53.2352L14.1329 54.6588L10.1179 62.9533ZM24.0161 48.0975L21.2982 53.7304L19.5069 52.8638L22.2248 47.231L24.0161 48.0975ZM16.6037 31.7562C23.6455 13.1246 38.6555 4.95395 43.5971 2.72558C44.4619 2.35419 45.4502 2.84938 45.6355 3.77787C45.6973 4.14926 45.7591 4.52065 45.8826 4.83015C45.6973 4.83015 45.5737 4.89205 45.3884 4.95395C42.2382 6.37762 34.8876 10.2773 28.2164 17.767C26.4251 18.6955 24.9426 20.1192 23.9543 21.9762C23.4602 22.9047 23.1513 23.8331 22.966 24.8235C22.1012 26.1853 21.36 27.5471 20.557 29.0327C19.8157 30.5801 18.3333 31.5705 16.6037 31.7562ZM44.3383 42.0314C44.153 41.5982 43.906 41.2268 43.6589 40.9173C43.2883 40.484 43.2265 39.9269 43.4736 39.3698C47.9828 30.0849 51.3801 17.5194 48.1681 3.15888C47.7357 1.30191 46.1297 -0.0598709 44.2148 0.00202809C43.6589 0.00202809 43.103 0.125826 42.547 0.373422C38.0996 2.41609 24.3867 9.78207 16.3566 26.0615C16.0478 26.6805 15.4301 27.0519 14.7506 27.0519C14.38 27.0519 14.0094 27.1138 13.6388 27.1757L9.43842 28.3518C8.2648 28.6613 7.27648 29.5897 6.78232 30.7039L0.296495 46.7358C-0.197663 47.9738 -0.0741237 49.3974 0.667114 50.5116C1.40835 51.6258 2.64375 52.3067 4.00268 52.3067C4.68215 52.3067 5.29985 52.121 5.91754 51.8115L9.00603 50.1402C9.37665 49.9545 9.80904 50.3259 9.62373 50.7592L4.49684 61.3439C4.12622 62.1486 4.43507 63.0771 5.23808 63.4485L9.74727 65.615C10.2414 65.8626 10.4885 66.4816 10.2414 66.9767L9.62373 68.2147C9.31488 68.8337 9.56196 69.5765 10.1797 69.886L14.2565 71.8668C14.8742 72.1763 15.6154 71.9287 15.9242 71.3097L16.4802 70.1955C16.7273 69.6384 17.4067 69.3908 17.9627 69.7003L21.4835 71.4335C22.3483 71.8668 23.3984 71.4954 23.8308 70.6288L28.5871 60.7868C28.7724 60.4154 29.3283 60.4773 29.4518 60.9106L29.8842 63.5104C30.1931 65.4293 31.8609 66.8529 33.8375 66.8529C35.32 66.8529 36.6171 66.1102 37.2966 64.8103L45.8208 49.7688C46.4385 48.7165 46.5003 47.3548 46.0061 46.2406L44.3383 42.0314Z" fill="#1A1E28"/>
<path d="M14.1653 69.3135L12.3586 68.4691L14.8505 63.403L16.6571 64.2474L14.1653 69.3135Z" fill="#FD7310"/>
<path d="M24.0585 57.4927L22.0287 56.5878L23.2227 54.2689L25.2526 55.1738L24.0585 57.4927Z" fill="#FD7310"/>
<path d="M17.8072 54.2684L16.1202 53.3767L17.1199 51.0445L18.8068 51.9362L17.8072 54.2684Z" fill="#FD7310"/>
<path d="M34.3873 32.2391C34.7634 32.1764 35.0858 32.051 35.462 31.9256V21.2689C35.0858 21.0808 34.7634 21.0182 34.3873 20.9555V32.2391Z" fill="#1A1E28"/>
<path d="M36.5366 31.7018C36.732 31.5717 36.8785 31.3766 37.0739 31.2466V21.948C36.9274 21.7529 36.732 21.6228 36.5366 21.4928V31.7018Z" fill="#1A1E28"/>
<path d="M16.5394 31.6105C16.4781 31.8624 16.1103 31.7365 16.1716 31.4846L11.8807 32.6811C11.4516 32.8071 11.0838 33.122 10.8999 33.5628L4.46347 49.8738C3.72788 50.1887 3.05359 49.8738 2.68579 49.307C3.11488 49.9368 3.91177 50.2517 4.64736 49.8108L11.942 45.7803C12.555 45.4654 13.2292 45.9063 13.1679 46.599C13.0453 47.5437 12.984 48.4254 12.9227 49.37C12.9227 49.8108 13.0453 50.3147 13.4131 50.6295C13.6583 50.8185 13.9648 51.1334 14.3326 51.4482C14.6391 51.7001 15.0682 51.5742 15.2521 51.2593L16.2329 49.244L17.7654 49.9998L19.4205 46.4731C19.727 45.7803 20.3399 45.2765 21.0755 45.0246C21.4433 44.8986 21.6885 44.7097 21.8724 44.3319L26.7764 35.0113C26.9602 34.6964 26.8377 34.3815 26.5925 34.1296C23.7114 31.7365 22.3628 27.8949 23.0371 24.1793C22.1789 25.5648 21.382 27.0132 20.6464 28.5247C19.8496 30.0991 18.3171 31.1697 16.6007 31.3586" fill="#FD7310"/>
<path d="M42.3201 43.3084C41.8866 42.3032 40.6483 42.0518 39.9053 42.8058L39.7195 42.9314C39.4718 43.1199 39.1622 42.8686 39.2861 42.6173C44.8587 32.8789 49.5645 19.1823 46.0971 3.22394C46.159 3.47525 46.2209 3.72656 46.2829 3.97788C46.0971 3.97788 45.9733 4.04071 45.7875 4.10353C42.5677 5.61141 35.1375 9.5696 28.3265 17.2975C26.5928 18.1771 25.1687 19.5593 24.178 21.3185C26.6547 16.9205 32.4131 14.91 36.9951 16.9205C42.3201 19.308 44.673 25.7165 42.1343 30.9941C40.0291 35.392 35.2614 37.591 30.7413 36.5858C30.3698 36.5229 29.9983 36.7114 29.8745 37.0256L25.9117 46.6383C25.7259 46.9524 25.7879 47.3294 25.9117 47.7064C26.1594 48.3975 26.1594 49.1514 25.8498 49.9054L24.4257 52.8583L27.3358 54.2405L26.0974 56.7537C25.9117 57.1306 26.1594 57.6333 26.5309 57.6961C26.5928 57.6961 26.5928 57.6961 26.6547 57.6961C27.1501 57.8217 27.6454 57.6333 28.0169 57.3191C28.5123 56.8793 29.2553 56.1254 30.1841 55.0573C30.4317 54.7432 30.9271 54.9316 30.989 55.3086L32.4131 63.7276C32.6608 65.1727 34.5184 65.4868 35.1995 64.2302L43.868 48.7116C44.1157 48.2718 44.1157 47.7692 43.93 47.3922L42.3201 43.3084Z" fill="#FD7310"/>
<defs>
<clipPath id="clip0_2381_16476">
<rect width="401.305" height="66.5096" fill="white" transform="translate(13.4817 2.24695)"/>
</clipPath>
</defs>
</svg>
