<svg width="377" height="66" viewBox="0 0 377 66" fill="none" xmlns="http://www.w3.org/2000/svg">
<g clip-path="url(#clip0_2328_467)">
<path d="M81.1824 20.3669V29.7129H86.3785C88.5089 29.7129 90.0678 29.3495 91.055 28.6745C92.0942 27.9995 92.6139 26.8572 92.6139 25.2995C92.6139 23.6899 92.1462 22.4957 91.1589 21.665C90.1717 20.8342 88.9246 20.4188 87.3138 20.4188H81.1824V20.3669ZM85.1834 39.9935H81.1824V56.349H68.0362V9.41132H87.002C93.5492 9.41132 98.1217 10.5017 100.772 12.6305C103.422 14.7074 104.773 18.1343 104.773 22.8073C104.773 25.6111 104.201 28.0514 103.11 30.1283C102.019 32.1533 100.304 33.5552 98.0178 34.2821C98.9012 34.6975 99.5767 34.9571 100.044 35.2167C100.512 35.4244 101.032 35.7878 101.655 36.2551C102.279 36.6705 102.746 37.1897 103.058 37.7089C103.37 38.2282 103.63 38.9032 103.941 39.7339C104.253 40.5647 104.513 41.5512 104.617 42.7454C104.773 43.8877 104.825 45.2377 104.825 46.7953C104.825 51.053 104.929 53.4933 105.085 54.1164C105.292 54.7394 105.656 55.051 106.176 55.051V56.5048H92.8737C92.406 55.1029 92.1982 52.351 92.1982 48.3011C92.1982 45.0819 91.7305 42.9531 90.8472 41.8627C90.0158 40.5647 88.1452 39.9935 85.1834 39.9935Z" fill="#FD7310"/>
<path d="M125.661 30.336C123.895 30.336 122.595 31.2186 121.764 32.9321C120.933 34.6455 120.517 36.6186 120.517 38.9551C120.517 42.0704 120.985 44.4069 121.868 45.9126C122.751 47.4184 123.998 48.1972 125.557 48.1972C128.883 48.1972 130.598 45.1338 130.598 38.9551C130.598 36.4109 130.13 34.2821 129.247 32.6725C128.311 31.0629 127.168 30.2321 125.661 30.336ZM108.93 39.682C108.93 33.8667 110.437 29.3494 113.45 26.1303C116.464 22.8592 120.465 21.2496 125.505 21.2496C130.649 21.2496 134.702 22.8592 137.664 26.1303C140.678 29.3494 142.185 33.6071 142.185 39.007C142.185 45.03 140.626 49.5991 137.56 52.7145C134.495 55.8298 130.494 57.3875 125.557 57.3875C120.673 57.3875 116.672 55.8817 113.554 52.8183C110.489 49.703 108.93 45.3415 108.93 39.682Z" fill="#FD7310"/>
<path d="M178.09 35.2167H166.347C166.295 33.7628 165.879 32.6205 165.1 31.6859C164.372 30.7513 163.385 30.336 162.086 30.336C158.709 30.336 156.994 33.4513 156.994 39.682C156.994 42.33 157.409 44.4069 158.293 45.9646C159.124 47.4703 160.423 48.2491 162.086 48.2491C164.684 48.2491 166.191 46.5357 166.607 43.1608H178.298C177.83 48.0415 176.064 51.6241 173.102 53.9087C170.14 56.1933 166.451 57.3875 162.086 57.3875C157.202 57.3875 153.201 55.8298 150.083 52.7664C146.965 49.651 145.406 45.2896 145.406 39.6301C145.406 33.9186 146.965 29.4533 150.031 26.1822C153.097 22.8592 157.15 21.2496 162.086 21.2496C166.347 21.2496 169.984 22.3919 172.946 24.7284C175.96 26.961 177.674 30.4917 178.09 35.2167Z" fill="#FD7310"/>
<path d="M195.497 44.2512L193.315 46.7953V56.401H181.727V9.41132H193.315V32.6206L200.745 22.1842H214.307L203.499 35.4244L215.71 56.349H201.784L195.497 44.2512Z" fill="#FD7310"/>
<path d="M227.765 35.4244H238.313C238.313 33.8667 237.794 32.4648 236.754 31.3225C235.767 30.1283 234.572 29.5052 233.169 29.5052C231.454 29.5052 230.103 30.0244 229.168 31.1148C228.233 32.1532 227.765 33.6071 227.765 35.4244ZM249.9 42.33H227.765C227.765 44.3031 228.337 45.9127 229.428 47.1588C230.519 48.4049 231.922 49.028 233.481 49.028C235.559 49.028 237.014 48.0415 237.845 46.0165H248.913C247.978 49.9107 246.003 52.8183 242.99 54.6356C239.976 56.401 236.546 57.3355 232.753 57.3355C227.869 57.3355 223.868 55.7779 220.75 52.6625C217.685 49.5472 216.126 45.1857 216.126 39.6301C216.126 34.1263 217.685 29.661 220.802 26.338C223.972 22.963 227.921 21.2496 232.649 21.2496C238.001 21.2496 242.21 23.2226 245.276 27.1168C248.446 31.011 249.952 36.0993 249.9 42.33Z" fill="#FD7310"/>
<path d="M272.556 46.6396V56.349C269.802 56.5048 267.619 56.6086 265.956 56.6086C264.346 56.6605 262.787 56.5567 261.384 56.2971C259.981 55.9856 258.942 55.6221 258.266 55.1029C257.591 54.6356 257.019 53.8567 256.552 52.8183C256.084 51.7799 255.772 50.6376 255.668 49.3395C255.564 48.0934 255.512 46.3799 255.512 44.2511V30.0244H251.407V22.1842H255.72V11.5401H267.152V22.1842H272.711V30.0244H267.152V42.4338C267.152 44.0954 267.359 45.2376 267.775 45.8088C268.243 46.3799 269.23 46.6396 270.789 46.6396H272.556Z" fill="#FD7310"/>
<path d="M344.574 57.024L342.703 24.5207L353.251 23.8976L353.563 28.986C356.005 24.8322 359.175 22.5995 363.072 22.3918C370.606 21.9765 374.607 26.3899 375.179 35.6839L376.322 55.1548L364.735 55.8298L363.748 38.6435C363.488 34.5936 362.033 32.6725 359.331 32.8282C357.616 32.9321 356.473 33.5551 355.849 34.6974C355.278 35.8397 355.07 37.5531 355.174 39.7858L356.161 56.349L344.574 57.024Z" fill="white"/>
<path d="M340.625 25.9226L336.468 58.2182L325.816 56.8683L326.439 52.1433C324.777 54.1164 323.114 55.4664 321.451 56.0894C319.788 56.6606 317.762 56.8163 315.268 56.5048C312.046 56.0894 309.656 54.6356 308.097 52.1433C306.538 49.6511 306.071 46.1203 306.642 41.6031L309.136 21.9765L320.62 23.4303L318.385 40.8762C318.126 43.005 318.229 44.5627 318.801 45.5492C319.373 46.4838 320.36 47.0549 321.763 47.2626C323.322 47.4703 324.569 46.9511 325.4 45.8088C326.232 44.6146 326.803 42.6935 327.167 40.0974L329.141 24.5726L340.625 25.9226Z" fill="white"/>
<path d="M290.898 55.7779C291.002 55.674 291.106 55.5702 291.158 55.4144C291.158 55.4144 291.158 55.3625 291.21 55.3625C291.314 55.2586 291.366 55.1548 291.417 54.999C291.417 54.9471 291.469 54.9471 291.469 54.8952C291.521 54.7913 291.573 54.6875 291.677 54.5836C291.677 54.5317 291.729 54.4798 291.729 54.4279C291.781 54.324 291.833 54.2202 291.885 54.1163C291.885 54.0644 291.937 54.0125 291.937 53.9087C291.989 53.8048 291.989 53.701 292.041 53.5971C292.041 53.4933 292.093 53.4414 292.093 53.3375C292.093 53.2337 292.145 53.1817 292.145 53.0779C292.145 52.9741 292.197 52.8702 292.197 52.7664C292.197 52.7144 292.197 52.6106 292.249 52.5587C292.249 52.4029 292.301 52.1952 292.301 51.9875C292.301 51.8318 292.301 51.6241 292.249 51.4683C292.249 51.4164 292.249 51.4164 292.249 51.3645C292.249 51.2087 292.197 51.0529 292.197 50.8972C292.197 50.8452 292.197 50.8452 292.197 50.7933C292.145 50.6375 292.145 50.5337 292.093 50.3779C292.093 50.326 292.093 50.326 292.041 50.2741C291.989 50.1183 291.937 50.0145 291.885 49.8587C291.885 49.8068 291.833 49.7549 291.833 49.703C291.781 49.5991 291.729 49.4433 291.677 49.3395C291.625 49.2876 291.625 49.2356 291.573 49.1837C291.521 49.1318 291.469 49.028 291.469 48.976C291.417 48.8722 291.314 48.7683 291.262 48.6645C291.21 48.6126 291.21 48.5607 291.158 48.5087C291.106 48.4568 291.054 48.353 291.002 48.301L290.95 48.2491C290.846 48.0934 290.69 47.9895 290.586 47.8857L290.534 47.8337C290.274 47.6261 290.015 47.4184 289.755 47.2107C289.755 47.2107 289.703 47.2107 289.703 47.1588C289.599 47.1068 289.495 47.0549 289.391 46.9511C289.391 46.9511 289.339 46.9511 289.339 46.8991C289.131 46.7953 288.923 46.6915 288.715 46.6395C288.664 46.6395 288.612 46.5876 288.56 46.5876C288.456 46.5876 288.404 46.5357 288.3 46.5357C288.196 46.5357 288.144 46.4838 288.04 46.4838C287.988 46.4838 287.884 46.4318 287.832 46.4318C287.728 46.4318 287.624 46.3799 287.52 46.3799C287.468 46.3799 287.416 46.3799 287.365 46.3799C287.209 46.3799 287.001 46.328 286.845 46.328C283.727 46.328 281.233 48.8722 281.233 51.9356C281.233 55.0509 283.779 57.5432 286.845 57.5432C287.053 57.5432 287.261 57.5432 287.468 57.4913C287.52 57.4913 287.572 57.4913 287.624 57.4394C287.78 57.4394 287.884 57.3874 288.04 57.3874C288.092 57.3874 288.144 57.3355 288.196 57.3355C288.352 57.2836 288.456 57.2836 288.612 57.2317C288.664 57.2317 288.716 57.1798 288.767 57.1798C288.923 57.1278 289.027 57.0759 289.131 57.024C289.183 57.024 289.235 56.9721 289.287 56.9721C289.443 56.9201 289.547 56.8163 289.703 56.7644C289.755 56.7644 289.755 56.7125 289.807 56.7125C289.963 56.6086 290.066 56.5567 290.222 56.4528L290.274 56.4009C290.43 56.2971 290.534 56.1932 290.69 56.0894C290.69 56.0894 290.69 56.0894 290.742 56.0375C290.638 56.0375 290.794 55.9336 290.898 55.7779Z" fill="#FD7310"/>
<path d="M299.627 30.6475L304.46 30.0764L303.576 22.6515L298.744 23.2226C298.328 20.8342 298.432 19.3284 298.952 18.7573C299.523 18.1342 300.874 17.7189 302.953 17.4592L302.018 9.35938L297.081 9.93052C295.107 10.1382 293.444 10.5017 292.197 11.0209C291.002 11.4882 289.911 12.267 288.923 13.2535C287.988 14.292 287.416 15.7458 287.157 17.615C286.897 19.4323 286.949 21.7688 287.313 24.5207L283.415 24.988L284.299 32.4129L288.092 31.9456L289.651 45.2377C292.249 46.3799 294.068 49.028 294.068 52.0395C294.068 53.8048 293.444 55.4144 292.457 56.6606L302.537 55.4663L299.627 30.6475Z" fill="white"/>
</g>
<path d="M35.2902 26.8982C33.8333 29.9304 30.1351 31.2219 27.1092 29.762C24.0834 28.302 22.7946 24.596 24.2515 21.5639C25.7084 18.5317 29.4066 17.2402 32.4324 18.7002C35.5143 20.1601 36.7471 23.8099 35.2902 26.8982ZM19.8248 62.3296L17.6955 61.2628L21.5619 53.2893L23.6912 54.3562L19.8248 62.3296ZM13.6611 54.5246L15.3421 51.0433L18.8162 52.7278L17.1352 56.2092L13.6611 54.5246ZM10.8033 29.9304C10.4111 30.0427 10.0749 30.3235 9.9068 30.7165L4.13531 45.0351C3.07066 45.4843 1.94998 44.4174 2.39825 43.2944L8.28182 28.6951C8.44992 28.302 8.78612 28.0213 9.17836 27.909L12.9887 26.8421C13.8852 26.5613 14.7818 27.3475 14.6697 28.302L14.6137 28.8635L10.8033 29.9304ZM9.17836 57.1076L6.54476 55.8161L10.187 48.2918L12.8206 49.5833L9.17836 57.1076ZM21.786 43.6313L19.3205 48.7411L17.6955 47.9549L20.161 42.8452L21.786 43.6313ZM15.0619 28.8074C21.4498 11.9059 35.066 4.49393 39.5488 2.47249C40.3332 2.13558 41.2298 2.58479 41.3979 3.42706C41.4539 3.76397 41.5099 4.10087 41.622 4.38163C41.4539 4.38163 41.3418 4.43778 41.1737 4.49393C38.316 5.78541 31.648 9.32293 25.5963 16.1172C23.9713 16.9595 22.6265 18.251 21.73 19.9355C21.2817 20.7778 21.0015 21.62 20.8334 22.5185C20.0489 23.7538 19.3765 24.9891 18.6481 26.3367C17.9757 27.7405 16.6309 28.6389 15.0619 28.8074ZM40.2212 38.1285C40.0531 37.7354 39.8289 37.3985 39.6048 37.1178C39.2686 36.7247 39.2126 36.2193 39.4367 35.714C43.5272 27.2913 46.609 15.8926 43.6953 2.86555C43.303 1.18101 41.8461 -0.0543114 40.1091 0.00183976C39.6048 0.00183976 39.1005 0.114142 38.5962 0.338747C34.5617 2.19174 22.1222 8.87372 14.8378 23.6415C14.5576 24.203 13.9973 24.5399 13.3809 24.5399C13.0447 24.5399 12.7085 24.596 12.3723 24.6522L8.56199 25.7191C7.49734 25.9998 6.6008 26.8421 6.15253 27.8528L0.268963 42.396C-0.179309 43.519 -0.0672407 44.8105 0.605167 45.8212C1.27757 46.8319 2.39825 47.4496 3.631 47.4496C4.24737 47.4496 4.80771 47.2811 5.36805 47.0004L8.16975 45.4843C8.50595 45.3158 8.89819 45.6527 8.73009 46.0458L4.07927 55.6476C3.74307 56.3776 4.02324 57.2199 4.75168 57.5568L8.84216 59.5221C9.29043 59.7467 9.51456 60.3082 9.29043 60.7574L8.73009 61.8804C8.44992 62.4419 8.67405 63.1157 9.23439 63.3965L12.9326 65.1933C13.493 65.4741 14.1654 65.2495 14.4455 64.688L14.9499 63.6773C15.174 63.1719 15.7904 62.9473 16.2947 63.2281L19.4886 64.8003C20.2731 65.1933 21.2257 64.8564 21.6179 64.0703L25.9325 55.1423C26.1006 54.8054 26.6049 54.8615 26.717 55.2546L27.1092 57.6129C27.3894 59.3536 28.9023 60.6451 30.6954 60.6451C32.0402 60.6451 33.2169 59.9713 33.8333 58.7921L41.566 45.1474C42.1263 44.1928 42.1824 42.9575 41.7341 41.9468L40.2212 38.1285Z" fill="white"/>
<path d="M12.8499 62.8772L11.2111 62.1112L13.4716 57.5156L15.1104 58.2815L12.8499 62.8772Z" fill="#FD7310"/>
<path d="M21.8245 52.1541L19.9832 51.3332L21.0663 49.2296L22.9077 50.0505L21.8245 52.1541Z" fill="#FD7310"/>
<path d="M16.1536 49.2291L14.6233 48.4202L15.5301 46.3046L17.0604 47.1135L16.1536 49.2291Z" fill="#FD7310"/>
<path d="M31.1942 29.2454C31.5354 29.1885 31.8279 29.0748 32.1691 28.9611V19.2939C31.8279 19.1233 31.5354 19.0664 31.1942 19.0096V29.2454Z" fill="white"/>
<path d="M33.1439 28.758C33.3212 28.64 33.4541 28.463 33.6313 28.3451V19.9099C33.4984 19.733 33.3212 19.615 33.1439 19.497V28.758Z" fill="white"/>
<path d="M15.0036 28.6752C14.948 28.9038 14.6143 28.7895 14.6699 28.561L10.7775 29.6464C10.3882 29.7607 10.0546 30.0463 9.88774 30.4462L4.049 45.2426C3.38172 45.5283 2.77004 45.2426 2.4364 44.7285C2.82565 45.2998 3.54854 45.5854 4.21583 45.1855L10.8331 41.5292C11.3891 41.2436 12.0008 41.6435 11.9452 42.2719C11.834 43.1289 11.7784 43.9287 11.7228 44.7856C11.7228 45.1855 11.834 45.6425 12.1676 45.9282C12.3901 46.0996 12.6681 46.3852 13.0017 46.6708C13.2798 46.8994 13.669 46.7851 13.8358 46.4995L14.7256 44.6713L16.1157 45.3569L17.6171 42.1577C17.8952 41.5292 18.4512 41.0722 19.1185 40.8437C19.4521 40.7294 19.6746 40.5581 19.8414 40.2153L24.29 31.7602C24.4568 31.4746 24.3456 31.1889 24.1231 30.9604C21.5096 28.7895 20.2863 25.3046 20.8979 21.934C20.1194 23.1909 19.3965 24.5048 18.7293 25.8759C18.0064 27.3041 16.6162 28.2753 15.0592 28.4467" fill="#FD7310"/>
<path d="M38.3903 39.2869C37.9971 38.3749 36.8738 38.147 36.1997 38.8309L36.0312 38.9449C35.8065 39.1159 35.5257 38.8879 35.638 38.6599C40.6932 29.8258 44.9621 17.4011 41.8166 2.92456C41.8728 3.15254 41.9289 3.38051 41.9851 3.60849C41.8166 3.60849 41.7043 3.66548 41.5358 3.72248C38.615 5.09034 31.8747 8.68097 25.6962 15.6913C24.1234 16.4892 22.8316 17.743 21.9329 19.3389C24.1796 15.3493 29.4033 13.5255 33.5598 15.3493C38.3903 17.5151 40.5247 23.3285 38.2218 28.116C36.3121 32.1056 31.9871 34.1004 27.8868 33.1885C27.5497 33.1315 27.2127 33.3025 27.1004 33.5874L23.5056 42.3075C23.3371 42.5925 23.3932 42.9345 23.5056 43.2764C23.7303 43.9034 23.7303 44.5873 23.4494 45.2712L22.1575 47.95L24.7975 49.2038L23.6741 51.4836C23.5056 51.8256 23.7303 52.2815 24.0673 52.3385C24.1234 52.3385 24.1234 52.3385 24.1796 52.3385C24.629 52.4525 25.0783 52.2815 25.4153 51.9966C25.8647 51.5976 26.5387 50.9137 27.3812 49.9448C27.6059 49.6598 28.0553 49.8308 28.1114 50.1727L29.4033 57.81C29.628 59.1208 31.313 59.4058 31.9309 58.2659L39.7945 44.1884C40.0192 43.7894 40.0192 43.3334 39.8507 42.9915L38.3903 39.2869Z" fill="#FD7310"/>
<defs>
<clipPath id="clip0_2328_467">
<rect width="364.04" height="60.3337" fill="white" transform="translate(12.2299 2.03833)"/>
</clipPath>
</defs>
</svg>
