<svg width="24" height="24" viewBox="0 0 24 24" fill="none" xmlns="http://www.w3.org/2000/svg">
<path d="M12.0011 24.0022C18.6291 24.0022 24.0022 18.6291 24.0022 12.0011C24.0022 5.37307 18.6291 0 12.0011 0C5.37307 0 0 5.37307 0 12.0011C0 18.6291 5.37307 24.0022 12.0011 24.0022Z" fill="#2CA1E3"/>
<path fill-rule="evenodd" clip-rule="evenodd" d="M9.37951 19.8287H7.29275V15.6551H6.24936V17.7419H4.1626V9.39266H5.20598V8.34928H6.24936V7.3059H8.33613V6.26251H15.6398V7.3059H17.7266V8.34928H18.7721V9.39266H19.8155V17.7397H17.7288V15.653H16.6854V19.8265H14.5986V15.6551H13.5552V20.8721H10.4229V15.6551H9.37951V19.8287Z" fill="#1B7FCD"/>
<path fill-rule="evenodd" clip-rule="evenodd" d="M9.37951 17.7419H7.29275V13.5684H6.24936V15.6551H4.1626V7.30587H5.20598V6.26249H6.24936V5.2191H8.33613V4.17572H15.6398V5.2191H17.7266V6.26249H18.7721V7.30587H19.8155V15.6529H17.7288V13.5662H16.6854V17.7397H14.5986V13.5684H13.5552V18.7853H10.4229V13.5684H9.37951V17.7419Z" fill="#D3D3D3"/>
<path fill-rule="evenodd" clip-rule="evenodd" d="M8.33611 8.34928H7.29272V9.39266H8.33611V8.34928ZM15.642 8.34928H16.6854V9.39266H15.642V8.34928ZM9.37949 7.3059H8.33611V8.34928H9.37949V7.3059H10.4229V6.26251H9.37949V7.3059ZM14.5986 7.3059H15.642V8.34928H14.5986V7.3059H13.5552V6.26251H14.5986V7.3059Z" fill="#B9B9B9"/>
<path fill-rule="evenodd" clip-rule="evenodd" d="M12.5096 10.436H11.4663V11.4794H12.5096V10.436ZM9.37949 10.4382H10.4229V7.30585H9.37949V8.34923H8.33611V9.39261H7.29272V10.436H8.33611V11.4772H9.37949V10.4382ZM14.5986 10.4382H13.5552V7.30585H14.5986V8.34923H15.642V9.39261H16.6854V10.436H15.642V11.4772H14.5986V10.4382Z" fill="#3E2057"/>
<path fill-rule="evenodd" clip-rule="evenodd" d="M10.4229 10.436V8.34924H9.37957V9.39263H8.33618V11.4794H9.37957V10.436H10.4229ZM14.5987 11.4794V10.436H13.5553V8.34924H14.5987V9.39263H15.642V11.4794H14.5987Z" fill="#241C2A"/>
<path fill-rule="evenodd" clip-rule="evenodd" d="M7.29275 11.4794H8.33613V12.5228H9.37951V11.4794H8.33613V10.436H7.29275V11.4794ZM16.6854 11.4794H15.642V12.5228H14.5986V11.4794H15.642V10.436H16.6854V11.4794ZM10.4229 10.436H9.37951V11.4794H10.4229V10.436ZM13.5552 10.436H14.5986V11.4794H13.5552V10.436ZM7.29275 9.39264H6.24936V10.436H7.29275V9.39264ZM16.6854 9.39264H17.7288V10.436H16.6854V9.39264ZM5.20598 7.30587H4.1626V9.39264H5.20598V7.30587ZM18.7721 7.30587H19.8155V9.39264H18.7721V7.30587ZM6.24936 6.26249H5.20598V7.30587H6.24936V6.26249ZM17.7288 6.26249H18.7721V7.30587H17.7288V6.26249ZM8.33613 5.2191H6.24936V6.26249H8.33613V5.2191ZM15.642 5.2191H17.7288V6.26249H15.642V5.2191H8.33613V4.17572H15.6398V5.2191H15.642Z" fill="#EBEBEB"/>
<path fill-rule="evenodd" clip-rule="evenodd" d="M7.29275 13.5662V17.7397H9.37951V16.6985H8.33613V13.5662H7.29275ZM15.642 16.6985H14.5986V17.7419H16.6854V13.5662H15.642V16.6985ZM11.4663 17.7419V13.5662H10.4229V18.7831H13.5552V13.5662H12.5118V17.7397H11.4663V17.7419ZM17.7288 15.6551H19.8155V11.4794H18.7721V13.5662H17.7288V15.6551ZM6.24936 15.6551H4.1626V11.4794H5.20598V13.5662H6.24936V15.6551Z" fill="#B9B9B9"/>
<path fill-rule="evenodd" clip-rule="evenodd" d="M11.4663 17.7419H10.4229V18.7853H11.4663V17.7419ZM13.5552 17.7419H12.5118V18.7853H13.5552V17.7419ZM16.6854 16.6985H15.642V17.7419H16.6854V16.6985ZM8.33613 16.6985H7.29275V17.7419H8.33613V16.6985ZM6.24936 14.6118H4.1626V15.6551H6.24936V14.6118ZM19.8155 14.6118H17.7288V15.6551H19.8155V14.6118Z" fill="#949494"/>
</svg>
